<?xml version="1.0" encoding="UTF-8"?>
<svg id="_레이어_2" data-name="레이어 2" xmlns="http://www.w3.org/2000/svg" viewBox="0 0 66.26 12.02">
  <g id="_레이어_2-2" data-name="레이어 2">
    <path d="M12.61,11.82C5,10.78-.62,5.97.05,1.07c.05-.37.15-.73.26-1.07l27.31,3.74c.02.37.02.74-.03,1.11-.67,4.9-7.38,8.02-14.98,6.98Z"/>
    <path d="M53.65,11.82c7.6-1.04,13.23-5.85,12.56-10.75-.05-.37-.15-.73-.26-1.07l-27.31,3.74c-.02.37-.02.74.03,1.11.67,4.9,7.38,8.02,14.98,6.98Z"/>
    <rect x="26.27" y="4.64" width="13.45" height="1.79"/>
  </g>
</svg>