<?xml version="1.0" encoding="UTF-8"?>
<svg id="_레이어_2" data-name="레이어 2" xmlns="http://www.w3.org/2000/svg" xmlns:xlink="http://www.w3.org/1999/xlink" viewBox="0 0 1920 1080">
  <defs>
    <style>
      .cls-1, .cls-2 {
        fill: none;
      }

      .cls-3 {
        fill: #419341;
      }

      .cls-4 {
        fill: #367f36;
      }

      .cls-5 {
        fill: #55ad55;
      }

      .cls-6 {
        fill: #254e3d;
      }

      .cls-7 {
        fill: #e0debd;
      }

      .cls-8 {
        fill: #1e661f;
      }

      .cls-9 {
        fill: #606060;
      }

      .cls-10 {
        fill: #449641;
      }

      .cls-11 {
        fill: #173938;
      }

      .cls-12 {
        fill: #a0a532;
      }

      .cls-2 {
        stroke: #317a31;
        stroke-miterlimit: 10;
        stroke-width: 3px;
      }

      .cls-13 {
        fill: #efeece;
      }

      .cls-14 {
        fill: #317a31;
      }

      .cls-15 {
        fill: #c2ce4d;
      }

      .cls-16 {
        clip-path: url(#clippath);
      }

      .cls-17 {
        fill: #194536;
      }
    </style>
    <clipPath id="clippath">
      <rect class="cls-1" width="1920" height="1080"/>
    </clipPath>
  </defs>
  <g id="_레이어_1-2" data-name="레이어 1">
    <g class="cls-16">
      <rect class="cls-13" x="2.94" y="1.83" width="1920" height="1080"/>
      <g>
        <path class="cls-7" d="M1749.9,773.52l-28.49,10.22c-16.14-20.31-31.4-43.62-45.15-69.33l36.86-21.99-49.62-3.5c-9.12-19.49-17.37-40.1-24.52-61.61l49.74-39.75-60.5,3.29c-6.98-26.93-11.62-53.18-13.99-78.14l39.51-31.64-41.27,2.28c-1.17-47.77,6.52-89.34,22.23-119.72l-.3-.89c.19.11.39.23.58.34.1-.18.19-.37.28-.55l.29.89c19.55,11.37,41.46,26.77,63.38,45.89l-9.56,34.18,25.64-19.47c15.14,14.55,30,30.86,43.78,48.83l-25.6,29.08,40.18-8.82c10.74,15.97,20.54,33.06,28.93,51.23l-27.41,41.54,38.71-13.99c.9,2.49,1.77,5,2.62,7.53,5,15.03,8.81,30.11,11.58,45.09l-35.43,53.83,40.45-14.66c5.53,76.05-13.21,145.91-35.65,188.55h0s0,0,0,0c0,0,0,0,0,0h0c-21.57-12.37-43.17-30.78-63.65-54.02l16.38-24.7Z"/>
        <g>
          <polygon class="cls-7" points="1797.17 852.23 1797.17 852.23 1797.17 852.23 1797.17 852.23"/>
          <path class="cls-7" d="M1635.27,362.53l.29.89c-.13-.24-.26-.47-.38-.71.03-.06.06-.12.09-.17Z"/>
          <path class="cls-7" d="M1635.56,363.42c19.55,11.37,41.46,26.77,63.38,45.89l-9.56,34.18,25.64-19.47c15.14,14.55,30,30.86,43.78,48.83l-25.6,29.08,40.18-8.82c10.74,15.97,20.54,33.06,28.93,51.23l-27.41,41.54,38.71-13.99c.9,2.49,1.77,5,2.62,7.53,5,15.03,8.81,30.11,11.58,45.09l-35.43,53.83,40.45-14.66c5.53,76.05-13.21,145.91-35.65,188.55,0-.04-15.16-214.34-161.6-488.81Z"/>
        </g>
        <path class="cls-7" d="M1769.16,894.04l-19.6,22.09c-23.35-11.61-47.36-26.4-71.19-44.06l21.25-36.69-44.14,18.78c-16.95-13.97-33.69-29.37-49.9-46.08l23.96-58.82-50.28,29.89c-18.61-21.8-34.9-44.01-48.63-66.03l19-46.78-34.27,20.42c-23.41-43.64-36.32-85.49-37.11-120.55l-.67-.69c.22.02.44.04.65.06,0-.21-.01-.43-.02-.64l.67.69c22.08,1.84,48.07,6.35,75.8,14.3l7.84,35.85,12.83-29.38c19.79,6.73,40.16,15.22,60.4,25.72l-8.29,38.25,30.27-25.99c16.69,9.99,33.1,21.45,48.81,34.52l-3.99,50.57,26.6-30.11c1.94,1.91,3.87,3.83,5.77,5.8,11.33,11.68,21.66,23.93,31.07,36.55l-5.1,65.49,27.77-31.5c40.4,67.86,57.12,140.77,57.9,190.14h0s0,0,0,0c0,0,0,0,0,0h0c-24.28-1.87-51.41-9.3-79.85-21.7l2.44-30.1Z"/>
        <g>
          <polygon class="cls-7" points="1846.57 945.84 1846.57 945.84 1846.57 945.84 1846.57 945.84"/>
          <path class="cls-7" d="M1478.22,564.95l.67.69c-.22-.17-.44-.33-.66-.49,0-.07,0-.13,0-.2Z"/>
          <path class="cls-7" d="M1478.89,565.64c22.08,1.84,48.07,6.35,75.8,14.3l7.84,35.85,12.83-29.38c19.79,6.73,40.16,15.22,60.4,25.72l-8.29,38.25,30.27-25.99c16.69,9.99,33.1,21.45,48.81,34.52l-3.99,50.57,26.6-30.11c1.94,1.91,3.87,3.83,5.77,5.8,11.33,11.68,21.66,23.93,31.07,36.55l-5.1,65.49,27.77-31.5c40.4,67.86,57.12,140.77,57.9,190.14-.02-.04-113.52-191.44-367.68-380.2Z"/>
        </g>
        <path class="cls-7" d="M1850.13,986.58l-8.28,28.55c-25.49-1.89-52.87-6.53-81.28-13.96l3.73-43.01-31.41,34.98c-20.79-6.61-41.97-14.67-63.23-24.17l-2.98-65.02-32.27,47.89c-25.48-13.38-49.08-28.06-70.33-43.55l-2.42-51.69-21.98,32.69c-38.74-32.19-67.43-66.76-82.57-99.65l-.88-.39c.2-.07.4-.13.6-.2-.09-.2-.19-.4-.28-.6l.88.39c20.34-6.87,45.25-12.72,73.11-16.01l21.72,30.88-.73-32.81c20.32-1.34,41.89-1.25,64.16.8l8.41,39.44,16.14-36.4c18.92,2.95,38.19,7.41,57.51,13.65l17.29,49.42,11.18-38.87c2.5,1.05,5.01,2.12,7.51,3.24,14.86,6.64,29.07,14.21,42.61,22.49l22.46,63.98,11.64-40.64c63.78,48.48,108.65,110.98,129.68,157.41h0s0,0,0,0c0,0,0,0,0,0h0c-22.3,7.7-49.42,11.24-79.75,10.59l-10.23-29.44Z"/>
        <g>
          <path class="cls-7" d="M1456.54,788.47l.88.39c-.27-.07-.53-.14-.79-.21-.03-.06-.06-.13-.09-.19Z"/>
          <path class="cls-7" d="M1457.42,788.86c20.34-6.87,45.25-12.72,73.11-16.01l21.72,30.88-.73-32.81c20.32-1.34,41.89-1.25,64.16.8l8.41,39.44,16.14-36.4c18.92,2.95,38.19,7.41,57.51,13.65l17.29,49.42,11.18-38.87c2.5,1.05,5.01,2.12,7.51,3.24,14.86,6.64,29.07,14.21,42.61,22.49l22.46,63.98,11.64-40.64c63.78,48.48,108.65,110.98,129.68,157.41-.04-.03-179.54-136.97-482.7-216.57Z"/>
        </g>
      </g>
      <path class="cls-7" d="M1280.6,1365.16s82.26-900.88,74.82-984.85c-7.44-83.97-41.46-171.87-82.9-427.07-41.45-255.2-24.57-362.9-24.57-362.9l15.19,165.18s83.07,451.32,120.16,443.9c37.09-7.41,134.22-341.45,134.22-341.45l-51.37-69.08,31.53-68.83,76.26,35.69s-27.82,252.78-139.25,558.16c0,0-48.11,720.89,37.36,972.16,85.46,251.26-191.45,79.1-191.45,79.1Z"/>
      <path class="cls-7" d="M388.9,1105.67s128.66-571.07,117.03-624.3c-11.63-53.23-64.84-108.95-129.67-270.72-64.82-161.77-38.42-230.04-38.42-230.04l23.77,104.71s129.93,286.09,187.94,281.39c58.01-4.7,209.93-216.45,209.93-216.45l-80.35-43.79,49.31-43.63,119.28,22.62s-43.52,160.24-217.8,353.81c0,0-75.24,456.97,58.43,616.25,133.67,159.27-299.44,50.14-299.44,50.14Z"/>
      <path class="cls-7" d="M1503.46,115.99s43.84,715.13,26.25,777.81c-17.59,62.68,1.11,237.85,1.11,237.85l40.61-29.43s-24.97-913.38,0-986.24c24.97-72.86-67.97,0-67.97,0Z"/>
      <path class="cls-7" d="M284.27,29.36s43.84,715.13,26.25,777.81c-17.59,62.68,1.11,237.85,1.11,237.85l40.61-29.43s-24.97-913.38,0-986.24c24.97-72.86-67.97,0-67.97,0Z"/>
      <path class="cls-7" d="M1329.7,23.83h0s0,0,0,0c0,0,0,0,0,0h0c-28.26,12.16-58.24,46.7-77.11,92.87-1.16,2.84-2.26,5.68-3.3,8.52-5.96-14.68-13.65-27.94-21.83-39.21,2.09-16.01,1.93-30.76.28-42.45h0s0,0,0,0h0s0,0,0,0c-21.22,3.42-45.92,17.25-68.96,38.96,4.53-33.87-1.41-66.37-9.8-87h0s0,0,0,0t0,0h0c-28.26,12.16-58.24,46.7-77.11,92.87-1.16,2.84-2.26,5.68-3.3,8.52-5.96-14.68-13.65-27.94-21.83-39.21,2.09-16.01,1.93-30.76.28-42.45h0s0,0,0,0c0,0,0,0,0,0h0c-24.48,3.94-53.58,21.72-79.42,49.49-.38-.69-.77-1.39-1.16-2.07,4.11-33.25-1.77-65.02-10.02-85.3h0,0s0,0,0,0h0c-28.26,12.16-58.24,46.7-77.11,92.87-.02.05-.04.1-.06.16-1.41-1.93-2.87-3.82-4.37-5.68,12.81-42.34,6.14-86.64-4.34-112.41h0s0,0,0,0c0,0,0,0,0,0h0c-21.69,9.33-44.38,31.85-62.29,62.68-3.32-1.42-6.57-2.67-9.71-3.76h0s0,0,0,0c0,0,0,0,0,0h0c-5.85,9.19-10.26,19.98-13.11,31.88-5.08-10.51-10.97-20.13-17.14-28.63,2.09-16.01,1.93-30.76.28-42.45h0,0s0,0,0,0h0c-30.38,4.9-67.88,31.09-97.44,71.25-29.38,39.91-43.26,83.22-39.17,113.67l-.25.34c.1-.02.19-.03.29-.05.01.1.02.19.04.29l.25-.34c24.54-4.12,59.02-16.91,86.88-42.81,5.8,45.39,23.33,83.21,45.17,102.05l.04.42c.06-.07.12-.15.18-.23.07.06.15.13.22.19l-.04-.42c10.84-13.44,22.49-33.19,29.82-56.68,1.85-1,3.74-2.06,5.64-3.19,17.9,37.7,45.99,65.08,75.15,75.35l.14.4c.06-.1.12-.19.18-.29.11.04.21.08.32.11l-.14-.4c9.67-15.4,19.03-36.12,23.78-58.99,3.3-2.38,6.61-4.93,9.89-7.66.51,2.37,1.04,4.73,1.61,7.04-1.59,10.11-1.85,19.59-.71,28.06l-.25.34c.1-.02.19-.03.29-.05.01.1.02.19.04.29l.25-.34c2.81-.47,5.74-1.06,8.78-1.76,8.28,20.99,19.33,37.93,31.8,48.68l.04.42c.06-.07.12-.15.18-.23.07.06.15.13.22.19l-.04-.42c14.38-17.84,30.18-46.77,35.45-80.81,3.56-2.77,7.06-5.73,10.45-8.88,5.8,45.39,23.33,83.21,45.17,102.05l.04.42c.06-.07.12-.15.18-.23.07.06.15.13.22.19l-.04-.42c10.84-13.44,22.49-33.19,29.82-56.68,6.76-3.65,13.88-8.11,21.01-13.39-3.41,14.22-4.41,27.48-2.88,38.93l-.25.34c.1-.02.19-.03.29-.05.01.1.02.19.04.29l.25-.34c24.54-4.12,59.02-16.91,86.88-42.81,5.8,45.39,23.33,83.21,45.17,102.05l.04.42c.06-.07.12-.15.18-.23.07.06.15.13.22.19l-.04-.42c10.84-13.44,22.49-33.19,29.82-56.68,26.69-14.4,59.08-41.49,75.56-81.61,18.95-46.13,12.02-97.3.42-125.81Z"/>
      <path class="cls-15" d="M1566.81,627.63s247.98,344.03,248.4,536.88l110.42-44.17s-27.3-96.17-358.82-492.71Z"/>
      <path class="cls-15" d="M1570.19,535.37s299.89,332.63,241.32,541.87l194.17-66.09s-15.1-99.89-435.49-475.78Z"/>
      <g>
        <path class="cls-17" d="M1915.02,223.14l-38.77-23.51c-26.91,25.5-53.12,55.73-77.64,89.95l48.5,43.45-71.56-9.25c-16.72,26.33-32.41,54.58-46.69,84.49l63.56,73.61-85.83-22.53c-15.07,38.02-26.67,75.71-34.78,112.13l50.47,58.57-58.53-15.42c-10.71,70.7-7.59,134.77,9.11,184.53l-.59,1.24c.3-.11.59-.22.89-.33.1.3.2.6.3.9l.59-1.24c30.09-11.22,64.32-27.73,99.24-49.78l-7.2-53.63,32.95,36.43c24.38-17.22,48.7-37.15,71.8-59.87l-31.08-50.71,55.74,24.83c18.37-20.61,35.6-43.19,51.04-67.76l-31.3-69.77,52.67,32.09c1.75-3.45,3.48-6.92,5.16-10.43,9.98-20.89,18.28-42.21,25.08-63.69l-40.44-90.38,55.02,33.59c22.29-111.49,8.74-220.86-15.26-290.81h0s0,0,0,0c0,0,0,0,0,0h0c-33.16,12.12-67.52,33.19-101.17,61.79l18.73,41.5Z"/>
        <g>
          <path class="cls-4" d="M1673.45,800.97l.59-1.24c-.23.32-.45.63-.68.95.03.1.06.19.1.29Z"/>
          <path class="cls-4" d="M1674.04,799.73c30.09-11.22,64.32-27.73,99.24-49.78l-7.2-53.63,32.95,36.43c24.38-17.22,48.7-37.15,71.8-59.87l-31.08-50.71,55.74,24.83c18.37-20.61,35.6-43.19,51.04-67.76l-31.3-69.77,52.67,32.09c1.75-3.45,3.48-6.92,5.16-10.43,9.98-20.89,18.28-42.21,25.08-63.69l-40.44-90.38,55.02,33.59c22.29-111.49,8.74-220.86-15.26-290.81-.01.06-62.22,314.37-323.42,679.88Z"/>
        </g>
        <path class="cls-12" d="M1965.36,49.5l-23.83-38.57c-35.57,10.46-72.66,25.45-110.06,44.78l23.42,60.76-59.52-40.8c-26.87,15.83-53.69,33.86-80.02,53.99l23.11,94.47-66.18-59.11c-30.72,27-58.2,55.29-81.99,84.03l18.29,75.12-45.11-40.37c-41.7,58.09-68.08,116.56-75.84,168.48l-1.09.83c.31.04.63.07.95.11-.05.31-.1.63-.14.94l1.09-.83c31.9,3.7,69.89,4.56,111.02.83l17.99-51.03,12.77,47.43c29.55-4.24,60.27-10.93,91.18-20.64l-4.6-59.3,38.34,47.47c25.74-10,51.35-22.26,76.28-37.12l3.87-76.37,32.31,52.54c3.13-2.27,6.25-4.58,9.34-6.94,18.4-14.06,35.48-29.27,51.31-45.3l5.11-98.89,33.71,54.95c70.57-89.14,108.26-192.71,118.72-265.91h0s0,0,0,0c0,0,0,0,0,0h0c-35.04-4.3-75.22-1.16-118.21,9l-2.21,45.48Z"/>
        <g>
          <path class="cls-15" d="M1487.35,454.16l1.09-.83c-.35.18-.69.36-1.04.54-.02.1-.03.2-.05.3Z"/>
          <path class="cls-15" d="M1488.43,453.32c31.9,3.7,69.89,4.56,111.02.83l17.99-51.03,12.77,47.43c29.55-4.24,60.27-10.93,91.18-20.64l-4.6-59.3,38.34,47.47c25.74-10,51.35-22.26,76.28-37.12l3.87-76.37,32.31,52.54c3.13-2.27,6.25-4.58,9.34-6.94,18.4-14.06,35.48-29.27,51.31-45.3l5.11-98.89,33.71,54.95c70.57-89.14,108.26-192.71,118.72-265.91-.04.05-198.44,251.64-597.34,458.29Z"/>
        </g>
        <path class="cls-17" d="M2098.56-64.52l-6.43-44.88c-36.78-4.62-76.78-5.7-118.78-2.93l-2.81,65.06-38.26-61.18c-30.96,3.78-62.75,9.58-94.93,17.52l-16.57,95.83-37.05-80.63c-38.95,12.48-75.44,27.43-108.74,44.27l-13.25,76.17-25.22-55.03c-61.44,36.58-108.98,79.64-136.85,124.13l-1.33.33c.27.16.55.32.82.48-.17.27-.34.54-.51.81l1.33-.33c27.76,16.14,62.24,32.11,101.44,45.12l36.88-39.59-7.25,48.58c28.78,7.92,59.61,14.07,91.83,17.51l19.48-56.2,16.18,58.84c27.59,1.12,55.97.12,84.75-3.54l34.07-68.46,8.62,61.07c3.78-.83,7.56-1.7,11.34-2.63,22.48-5.54,44.22-12.65,65.14-21.03l44.2-88.61,8.95,63.84c100.31-53.51,176.25-133.39,215.09-196.31h0s0,0,0,0c0,0,0,0,0,0h0c-30.41-17.95-68.49-31.12-111.95-38.99l-20.2,40.81Z"/>
        <g>
          <path class="cls-4" d="M1498.68,115.4l1.33-.33c-.39.03-.78.05-1.17.08-.05.08-.11.17-.16.25Z"/>
          <path class="cls-4" d="M1500,115.07c27.76,16.14,62.24,32.11,101.44,45.12l36.88-39.59-7.25,48.58c28.78,7.92,59.61,14.07,91.83,17.51l19.48-56.2,16.18,58.84c27.59,1.12,55.97.12,84.75-3.54l34.07-68.46,8.62,61.07c3.78-.83,7.56-1.7,11.34-2.63,22.48-5.54,44.22-12.65,65.14-21.03l44.2-88.61,8.95,63.84c100.31-53.51,176.25-133.39,215.09-196.31-.06.03-282.46,151.37-730.71,181.41Z"/>
        </g>
      </g>
      <polyline class="cls-2" points="452.05 1038.24 504.41 1096.32 575.5 1031.24"/>
      <path class="cls-8" d="M1009.82-48.97h0s0,0,0,0c0,0,0,0,0,0h0c-28.26,12.16-58.24,46.7-77.11,92.87-1.16,2.84-2.26,5.68-3.3,8.52-5.96-14.68-13.65-27.94-21.83-39.21,2.09-16.01,1.93-30.76.28-42.45h0s0,0,0,0h0s0,0,0,0c-21.22,3.42-45.92,17.25-68.96,38.96,4.53-33.87-1.41-66.37-9.8-87h0s0,0,0,0t0,0h0c-28.26,12.16-58.24,46.7-77.11,92.87-1.16,2.84-2.26,5.68-3.3,8.52-5.96-14.68-13.65-27.94-21.83-39.21,2.09-16.01,1.93-30.76.28-42.45h0s0,0,0,0c0,0,0,0,0,0h0c-24.48,3.94-53.58,21.72-79.42,49.49-.38-.69-.77-1.39-1.16-2.07,4.11-33.25-1.77-65.02-10.02-85.3h0,0s0,0,0,0h0c-28.26,12.16-58.24,46.7-77.11,92.87-.02.05-.04.1-.06.16-1.41-1.93-2.87-3.82-4.37-5.68,12.81-42.34,6.14-86.64-4.34-112.41h0s0,0,0,0c0,0,0,0,0,0h0c-21.69,9.33-44.38,31.85-62.29,62.68-3.32-1.42-6.57-2.67-9.71-3.76h0s0,0,0,0c0,0,0,0,0,0h0c-5.85,9.19-10.26,19.98-13.11,31.88-5.08-10.51-10.97-20.13-17.14-28.63,2.09-16.01,1.93-30.76.28-42.45h0,0s0,0,0,0h0c-30.38,4.9-67.88,31.09-97.44,71.25-29.38,39.91-43.26,83.22-39.17,113.67l-.25.34c.1-.02.19-.03.29-.05.01.1.02.19.04.29l.25-.34c24.54-4.12,59.02-16.91,86.88-42.81,5.8,45.39,23.33,83.21,45.17,102.05l.04.42c.06-.07.12-.15.18-.23.07.06.15.13.22.19l-.04-.42c10.84-13.44,22.49-33.19,29.82-56.68,1.85-1,3.74-2.06,5.64-3.19,17.9,37.7,45.99,65.08,75.15,75.35l.14.4c.06-.1.12-.19.18-.29.11.04.21.08.32.11l-.14-.4c9.67-15.4,19.03-36.12,23.78-58.99,3.3-2.38,6.61-4.93,9.89-7.66.51,2.37,1.04,4.73,1.61,7.04-1.59,10.11-1.85,19.59-.71,28.06l-.25.34c.1-.02.19-.03.29-.05.01.1.02.19.04.29l.25-.34c2.81-.47,5.74-1.06,8.78-1.76,8.28,20.99,19.33,37.93,31.8,48.68l.04.42c.06-.07.12-.15.18-.23.07.06.15.13.22.19l-.04-.42c14.38-17.84,30.18-46.77,35.45-80.81,3.56-2.77,7.06-5.73,10.45-8.88,5.8,45.39,23.33,83.21,45.17,102.05l.04.42c.06-.07.12-.15.18-.23.07.06.15.13.22.19l-.04-.42c10.84-13.44,22.49-33.19,29.82-56.68,6.76-3.65,13.88-8.11,21.01-13.39-3.41,14.22-4.41,27.48-2.88,38.93l-.25.34c.1-.02.19-.03.29-.05.01.1.02.19.04.29l.25-.34c24.54-4.12,59.02-16.91,86.88-42.81,5.8,45.39,23.33,83.21,45.17,102.05l.04.42c.06-.07.12-.15.18-.23.07.06.15.13.22.19l-.04-.42c10.84-13.44,22.49-33.19,29.82-56.68,26.69-14.4,59.08-41.49,75.56-81.61,18.95-46.13,12.02-97.3.42-125.81Z"/>
      <path class="cls-4" d="M977.43,0c-6.51-32.5-23.77-60.51-42.09-80.72.35-16.14-1.4-30.79-4.3-42.23h0s0,0,0,0t0,0h0c-23.91,6.56-50.92,27.37-73.62,57.77-.46-.65-.91-1.3-1.38-1.94.51-33.5-8.77-64.45-19.16-83.72h0s0,0,0,0h0s0,0,0,0c-26.79,15.13-52.87,52.71-66.65,100.64-.02.05-.03.11-.05.16-1.61-1.77-3.26-3.49-4.95-5.17,8.17-43.48-3.23-86.79-16.44-111.28h0s0,0,0,0c0,0,0,0,0,0h0c-20.56,11.61-40.69,36.45-55.17,69.03-3.46-1.05-6.82-1.95-10.06-2.69h0s0,0,0,0h0,0c-4.83,9.77-8.04,20.97-9.59,33.11-6.18-9.9-13.08-18.83-20.13-26.61.35-16.14-1.4-30.79-4.3-42.23h0,0s0,0,0,0h0c-29.67,8.14-64.13,38.22-89.19,81.34-24.9,42.85-34.03,87.4-26.69,117.23l-.21.36c.09-.03.19-.05.28-.08.02.09.05.19.07.28l.21-.36c23.95-6.74,56.85-23.18,81.76-51.93,10.66,44.5,32.16,80.21,55.91,96.58l.08.41c.05-.08.1-.16.16-.24.08.05.16.11.24.17l-.08-.41c9.33-14.53,18.78-35.42,23.54-59.56,1.73-1.19,3.49-2.45,5.26-3.78,21.86,35.55,52.74,59.74,82.84,66.81l.18.38c.05-.1.1-.2.15-.31.11.03.22.05.33.08l-.18-.38c7.96-16.35,15.03-37.96,17.28-61.21,3.02-2.72,6.04-5.61,9.01-8.68.76,2.31,1.54,4.59,2.36,6.83-.49,10.23.27,19.67,2.32,27.97l-.21.36c.09-.03.19-.05.28-.08.02.09.05.19.07.28l.21-.36c2.74-.77,5.59-1.67,8.54-2.7,10.49,19.98,23.31,35.63,36.86,44.97l.08.41c.05-.08.1-.16.16-.24.08.05.16.11.24.17l-.08-.41c12.37-19.28,24.96-49.75,26.53-84.16,3.24-3.14,6.4-6.46,9.43-9.96,10.66,44.5,32.16,80.21,55.91,96.58l.08.41c.05-.08.1-.16.16-.24.08.05.16.11.24.17l-.08-.41c16.59-25.85,33.58-71.81,23.85-120.4Z"/>
      <path class="cls-10" d="M1740.5-96.4h0s0,0,0,0t0,0h0c-30.01,16.88-58.19,31.18-73.63,84.64-.95,3.29-1.83,6.58-2.65,9.84-8.41-15.56-19.6-1.72-30.08-13.23.39-18-1.57-34.34-4.81-47.1h0s0,0,0,0c0,0,0,0,0,0h0c-23.22,6.35-49.06,24.65-72.09,51.5.96-38.1-9.59-73.43-21.43-95.3h0s0,0,0,0c0,0,0,0,0,0h0c-30.01,16.88-57.44,28.29-72.88,81.75-.95,3.29-1.83,6.58-2.65,9.84-8.41-15.56-20.35,1.17-30.83-10.35.39-18-1.57-34.34-4.81-47.1h0s0,0,0,0h0s0,0,0,0c-26.78,7.32-57.04,30.53-82.47,64.43-.51-.72-1.02-1.45-1.54-2.16.57-37.37-9.82-71.89-21.46-93.39h0s0,0,0,0c0,0,0,0,0,0h0c-30.01,16.88-59,47.24-74.44,100.7-.02.06-.4-14.08-.33-2.68-1.8-1.98-1.92-.22-3.81-2.09,9.16-48.5-5.3-86.07-20.09-113.39h0s0,0,0,0c-23.03,12.95-45.57,40.66-61.8,76.99-3.87-1.17-7.64-2.17-11.27-3h0s0,0,0,0c0,0,0,0,0,0h0c-5.41,10.89-9.01,23.39-10.75,36.93-6.93-11.04-14.65-21-22.55-29.68.39-18-1.57-34.34-4.81-47.1h0s0,0,0,0c-33.24,9.08-71.83,42.64-99.9,90.73-27.9,47.8-38.12,97.49-29.89,130.77l-.24.4c.1-.03.21-.06.31-.09.03.1.05.21.08.32l.24-.4c26.83-7.52,63.68-25.86,91.58-57.92,11.95,49.64,36.03,89.47,62.63,107.73l.09.46c.06-.09.12-.18.18-.27.09.06.18.12.27.18l-.09-.46c10.45-16.21,21.04-39.51,26.37-66.44,1.94-1.33,3.91-2.74,5.89-4.21,24.48,39.66,59.07,66.64,92.79,74.52l.2.43c.06-.11.11-.23.17-.34.12.03.25.06.37.09l-.21-.43c8.91-18.24,16.84-42.34,19.36-68.28,3.39-3.03,6.76-6.26,10.09-9.68.85,2.57,1.73,5.11,2.64,7.61-.55,11.41.3,21.94,2.59,31.2l-.24.4c.1-.03.21-.06.31-.09.03.1.05.21.08.31l.24-.4c3.07-.86,6.27-1.86,9.57-3.01,11.75,22.29,26.11,39.74,41.29,50.16l.09.46c.06-.09.12-.18.18-.27.09.06.18.12.27.18l-.09-.46c13.86-21.51,27.96-55.5,29.72-93.88,3.63-3.5,7.17-7.2,10.57-11.11,11.95,49.64,36.03,89.47,62.63,107.73l.09.46c.06-.09.12-.18.18-.27.09.06.18.12.27.18l-.09-.46c10.45-16.21,21.04-39.51,26.37-66.44,7.08-4.86,14.48-10.66,21.79-17.37-2.08,16.18-1.6,31.01,1.5,43.52l-.24.4c.1-.03.21-.06.31-.09.03.1.05.21.08.32l.24-.4c26.83-7.52,63.68-25.86,91.58-57.92,11.95,49.64,36.03,89.47,62.63,107.73l.09.46c.06-.09.12-.18.18-.27.09.06.18.12.27.18l-.09-.46c10.45-16.21,21.04-39.51,26.37-66.44,27.98-19.18,60.78-53.12,74.29-99.58,15.53-53.43,1.63-109.35-14.73-139.57Z"/>
      <path class="cls-5" d="M589.27,569.02l-.18-.14c0,.06,0,.12,0,.18-.06.01-.12.03-.17.04l.18.14c.97,18.69,8.73,46.17,30.29,62.5,21.7,16.44,51.62,17.34,69.91,13.05h0s0,0,0,0h0s0,0,0,0c-.85-18.75-13.8-40.84-35.54-57.23-21.6-16.29-46.25-22.69-64.5-18.53Z"/>
      <path class="cls-17" d="M793.54,217.86c297.52-.42,616.93-202.59,616.58-451.55-.35-248.96-241.82-450.45-539.34-450.03-297.52.42-538.41,202.59-538.06,451.55.35,248.96,163.3,450.45,460.82,450.02ZM870.8-676.11c279.98-.4,525.68,197.71,526.03,442.47.35,244.77-323.31,443.5-603.29,443.9-279.98.4-445.11-197.7-445.46-442.47-.35-244.77,242.74-443.51,522.72-443.9Z"/>
      <path class="cls-5" d="M1425.28,254.82l.1-.2c-.06.01-.11.03-.17.04-.02-.05-.05-.11-.07-.16l-.1.2c-18.22,4.27-43.89,16.78-56.14,40.9-12.33,24.27-7.9,53.88-.44,71.12h0s0,0,0,0h0s0,0,0,0c18.31-4.16,37.75-20.83,50.02-45.13,12.2-24.15,14.13-49.54,6.8-66.77Z"/>
      <path class="cls-15" d="M1202.21,33.14l.1-.2c-.06.01-.11.03-.17.04-.02-.05-.05-.11-.07-.16l-.1.2c-18.22,4.27-43.89,16.78-56.14,40.9-12.33,24.27-7.9,53.88-.44,71.12h0s0,0,0,0h0s0,0,0,0c18.31-4.16,37.75-20.83,50.02-45.13,12.2-24.15,14.13-49.54,6.8-66.77Z"/>
      <path class="cls-10" d="M-26.68,439.28c349.05-.49,631.73-202.18,631.38-450.48-.35-248.3-283.6-449.19-632.65-448.69-349.05.49-631.73,202.18-631.38,450.48.35,248.3,283.6,449.19,632.65,448.69ZM-27.94-452.31c328.48-.47,617.72,188.81,618.07,432.93.35,244.11-288.33,450.62-616.81,451.08-328.48.47-595.04-197.05-595.39-441.16-.35-244.11,265.66-442.38,594.13-442.85Z"/>
      <path class="cls-10" d="M1555.74,266.64c349.05-.49,631.73-202.18,631.38-450.48-.35-248.3-283.6-449.19-632.65-448.69-349.05.49-631.73,202.18-631.38,450.48.35,248.3,283.6,449.19,632.65,448.69ZM1554.47-624.95c328.48-.47,617.72,188.81,618.07,432.93.35,244.11-288.33,450.62-616.81,451.08-328.48.47-595.04-197.05-595.39-441.16-.35-244.11,265.66-442.38,594.13-442.85Z"/>
      <path class="cls-15" d="M1751.65,466.4s238.75,378.91,145.34,575.1l202.6-32s2.16-101-347.94-543.1Z"/>
      <path class="cls-7" d="M195.13,818.48c3.63,2.25,33.14-63.23,131.77-97.01,0,0-84.51,100.6-30.35,90.85,54.16-9.75,44.23-37.63,48.9-36.89s40.96,23.23,39.36,33.34c-1.6,10.11,31.75-44.39,72.64-45.88,0,0-30.13,69.36-.85,55.67,29.28-13.69,36.03-36.16,36.03-36.16,0,0,2.3,86.08,30.68,57.9,28.38-28.18,30.23-39.85,30.23-39.85,0,0-10.27,59.75,30,62.15,40.28,2.4,44.97-42.3,44.97-42.3,0,0,3.93,55.63,26.08,56.75,22.14,1.12,47.13-30.79,18.3-75.22,0,0,55.56,36.71,52.76,59.39s43.08-.2,43.08-.2c0,0-3.77,43.9,7.73,41.74s35.3-6.41,14.12-48.81c0,0,80.49,30.32,96.29,96.6,15.8,66.28,103.99,239.08,103.99,239.08l-906.56-144.76,110.83-226.4Z"/>
      <path class="cls-15" d="M683.5,976.67c3.94,2.44,22.83-100.12,114.95-172.38,0,0-67.71,166.67-15.75,139.86,51.96-26.81,37.79-65.27,42.52-65.27s44.09,24.48,44.09,39.63,24.41-72.26,64.56-83.92c0,0-18.9,108.39,7.87,81.59,26.77-26.81,29.92-61.22,29.92-61.22,0,0,15.75,125.32,39.37,77.53,23.62-47.79,23.62-65.27,23.62-65.27,0,0-.79,89.74,39.37,83.92,40.15-5.83,37.79-72.26,37.79-72.26,0,0,12.6,80.42,34.64,76.92s41.73-55.94,6.3-114.22c0,0,60.63,40.79,61.41,74.59.79,33.8,42.52-10.28,42.52-10.28,0,0,3.15,65.06,14.17,59.23,11.02-5.83,33.86-17.55,6.3-74.63,0,0,84.25,25.68,110.23,118.92,25.98,93.24,140.15,325.44,140.15,325.44l-918.04-1.5,74.01-356.69Z"/>
      <path class="cls-15" d="M719.18,769.39s28.38,305.24-83.37,467.34c4.39-95.74,4.91-229.74-3.34-416.45,0,0-23.94,449.15-196.61,562.97l166.54,83.94s10.13-15.43,19.73-77.61l170.29,93.1s72.33-73.77-73.23-713.28Z"/>
      <path class="cls-15" d="M1550.16,731.07s247.98,344.03,248.4,536.88l110.42-44.17s-27.3-96.17-358.82-492.71Z"/>
      <path class="cls-15" d="M1553.54,638.81s299.89,332.63,241.32,541.87l194.17-66.09s-15.1-99.89-435.49-475.78Z"/>
      <path class="cls-4" d="M-8.92,1038.14c3.94,1.65,22.83-67.64,114.95-116.45,0,0-67.71,112.59-15.75,94.48,51.96-18.11,37.79-44.09,42.52-44.09s44.09,16.53,44.09,26.77,24.41-48.82,64.56-56.69c0,0-18.9,73.22,7.87,55.11,26.77-18.11,29.92-41.35,29.92-41.35,0,0,15.75,84.66,39.37,52.38,23.62-32.28,23.62-44.09,23.62-44.09,0,0-.79,60.63,39.37,56.69,40.15-3.94,37.79-48.82,37.79-48.82,0,0,12.6,54.33,34.64,51.96,22.05-2.36,41.73-37.79,6.3-77.16,0,0,60.63,27.56,61.41,50.39.79,22.83,42.52-6.94,42.52-6.94,0,0,3.15,43.95,14.17,40.01,11.02-3.94,33.86-11.86,6.3-50.41,0,0,84.25,17.35,110.23,80.33,25.98,62.99,140.15,219.85,140.15,219.85l-918.04-1.01,74.01-240.96Z"/>
      <g>
        <path class="cls-15" d="M328.82,882.6l-.3-.78c-.08.18-.15.36-.22.54-.18-.08-.35-.16-.53-.24l.3.78c-23.7,56.58-41.25,152.86-5.31,245.1,36.16,92.82,116.7,157.25,172.76,182.49h0s0,0,0,0h0s0,0,0,0c24.12-56.52,19.86-147.78-16.46-240.53-36.09-92.17-94.44-161.78-150.23-187.35Z"/>
        <path class="cls-2" d="M495.51,1310.48s-139.2-236.11-167-428.66"/>
        <polyline class="cls-2" points="307.48 1043.58 381.19 1069.72 412.71 978.64"/>
      </g>
      <path class="cls-17" d="M726.88,925.99l.32-.77c-.18.07-.36.15-.53.23-.07-.18-.14-.36-.21-.54l-.32.77c-56.38,24.18-135.94,81.17-174.25,172.44-38.56,91.85-25.48,194.16-2.75,251.27h0s0,0,0,0h0s0,0,0,0c56.64-23.85,117.03-92.39,155.43-184.31,38.15-91.34,44.63-181.94,22.31-239.1Z"/>
      <path class="cls-5" d="M565.47,834.84l.1-.83c-.15.12-.3.24-.45.36-.12-.15-.23-.31-.35-.46l-.1.83c-47.79,38.47-109.06,114.78-121.38,213-12.4,98.83,27.74,193.85,65.01,242.73h0s0,0,0,0h0s0,0,0,0c48.12-38.22,87.83-120.49,100.06-219.35,12.15-98.24-6.01-187.23-42.89-236.28Z"/>
      <path class="cls-2" d="M508.3,1290.47s-9.98-273.91,57.27-456.46"/>
      <polyline class="cls-2" points="465.31 1106.77 507.98 1166.24 568.36 1080.58"/>
      <path class="cls-4" d="M713.12,1106.67c3.94,2.44,22.83-100.12,114.95-172.38,0,0-67.71,166.67-15.75,139.86,51.96-26.81,37.79-65.27,42.52-65.27s44.09,24.48,44.09,39.63,24.41-72.26,64.56-83.92c0,0-18.9,108.39,7.87,81.59,26.77-26.81,29.92-61.22,29.92-61.22,0,0,15.75,125.32,39.37,77.53,23.62-47.79,23.62-65.27,23.62-65.27,0,0-.79,89.74,39.37,83.92,40.15-5.83,37.79-72.26,37.79-72.26,0,0,12.6,80.42,34.64,76.92,22.05-3.5,41.73-55.94,6.3-114.22,0,0,60.63,40.79,61.41,74.59s42.52-10.28,42.52-10.28c0,0,3.15,65.06,14.17,59.23,11.02-5.83,33.86-17.55,6.3-74.63,0,0,84.25,25.68,110.23,118.92,25.98,93.24,140.15,325.44,140.15,325.44l-918.04-1.5,74.01-356.69Z"/>
      <g>
        <path class="cls-3" d="M1547.69,848.36c-59.38-18.41-82.59-10.02-82.59-10.02l-52.71,249.85-29.72-249.12s-22.61-9.9-83.07,4.53c-60.47,14.44-76.16,33.48-76.16,33.48l85.02,253.62-130.7-212.58s-53.99,14.63-94.76,61.56c-40.77,46.93-42.45,71.55-42.45,71.55l309.15,238.37c10.28,17.06,28.81,27.66,48.76,27.83,9.13,1.21,18.45.2,27.12-2.92,21.77-1.75,41.49-15.87,49.44-37.56l146.45-390.14s-14.4-20.04-73.78-38.45Z"/>
        <polygon class="cls-14" points="1083 979.68 1425.57 1314.5 1079.7 983.53 1083 979.68"/>
        <polygon class="cls-14" points="1279.51 849.66 1404.58 1312.07 1274.71 851.3 1279.51 849.66"/>
        <polygon class="cls-14" points="1514.96 840.53 1397.47 1304.92 1509.97 839.61 1514.96 840.53"/>
      </g>
      <g>
        <path class="cls-6" d="M1773.12,774.34c-48.05-14.9-66.84-8.11-66.84-8.11l-38.86,157.39-27.86-156.8s-18.3-8.02-67.23,3.67c-48.93,11.68-61.64,27.1-61.64,27.1l43.03,142.7-104.14-101.77s-19.54,4.13-52.54,42.1c-33,37.98-34.36,57.9-34.36,57.9l250.19,192.91c8.32,13.8,23.31,22.39,39.46,22.52,7.39.98,14.93.16,21.95-2.36,17.62-1.42,33.57-12.84,40.01-30.4l118.53-315.74s-11.65-16.22-59.71-31.12Z"/>
        <polygon class="cls-10" points="1397.05 880.61 1674.29 1151.59 1394.38 883.73 1397.05 880.61"/>
        <polygon class="cls-10" points="1556.09 775.39 1657.3 1149.62 1552.2 776.72 1556.09 775.39"/>
        <polygon class="cls-10" points="1746.63 768 1651.55 1143.84 1742.59 767.26 1746.63 768"/>
      </g>
      <g>
        <path class="cls-3" d="M2014.6,852.39c-59.38-18.41-82.59-10.02-82.59-10.02l-52.71,249.85-29.72-249.12s-22.61-9.9-83.07,4.53c-60.47,14.44-76.16,33.48-76.16,33.48l85.02,253.62-130.7-212.58s-53.99,14.63-94.76,61.56c-40.77,46.93-42.45,71.55-42.45,71.55l309.15,238.37c10.28,17.06,28.81,27.66,48.76,27.83,9.13,1.21,18.45.2,27.12-2.92,21.77-1.75,41.49-15.87,49.44-37.56l146.45-390.14s-14.4-20.04-73.78-38.45Z"/>
        <polygon class="cls-14" points="1549.91 983.71 1892.48 1318.54 1546.61 987.56 1549.91 983.71"/>
        <polygon class="cls-14" points="1746.42 853.69 1871.49 1316.1 1741.62 855.34 1746.42 853.69"/>
        <polygon class="cls-14" points="1981.87 844.56 1864.38 1308.96 1976.88 843.64 1981.87 844.56"/>
      </g>
      <path class="cls-4" d="M1351.47,1113.33c4.24,1.86,8.38-102.35,89.3-186.96,0,0-43.35,174.6,4.28,140.68,47.63-33.92,28.14-69.98,32.81-70.65,4.68-.67,47.12,17.96,49.27,32.96,2.15,15,13.89-75,51.99-92.24,0,0-3.31,109.98,19.38,79.64,22.69-30.34,20.92-64.85,20.92-64.85,0,0,33.39,121.81,49.98,71.15,16.59-50.66,14.11-67.96,14.11-67.96,0,0,11.97,88.95,50.89,77.47,38.92-11.47,27.14-76.9,27.14-76.9,0,0,23.9,77.81,45.22,71.22,21.33-6.59,33.36-61.31-9.99-113.96,0,0,65.81,31.77,71.39,65.11,5.58,33.34,40.62-16.22,40.62-16.22,0,0,12.36,63.95,22.44,56.62,10.08-7.33,31.02-22.19-4.37-74.77,0,0,87.04,13.45,126.01,102.05,38.97,88.6,184.96,302.23,184.96,302.23l-908.94,128.95,22.58-363.59Z"/>
      <g>
        <path class="cls-17" d="M-54.52,862.39l42.48,23.02c27.33-28.52,53.67-62.05,78-99.73l-53.86-43.75,76.64,6.17c16.44-28.88,31.68-59.76,45.34-92.32l-71.43-75.08,92.51,19.56c14.08-41.24,24.49-81.96,31.24-121.14l-56.73-59.74,63.09,13.4c7.76-75.8,1.14-143.83-19.2-195.94l.56-1.35c-.31.13-.62.27-.93.4-.12-.31-.24-.63-.37-.95l-.56,1.35c-31.45,13.49-67.02,32.83-103.07,58.09l10.42,56.71-36.94-37.07c-25.07,19.59-49.92,42.05-73.34,67.41l35.69,52.38-60.6-23.56c-18.49,22.89-35.67,47.8-50.83,74.74l36.91,72.65-57.71-31.44c-1.69,3.76-3.35,7.54-4.96,11.37-9.55,22.75-17.28,45.87-23.42,69.08l47.7,94.11-60.29-32.92c-17.98,119.81,2.07,235.52,31.21,308.73h0s0,0,0,0c0,0,0,0,0,0h0c34.67-14.6,70.15-38.8,104.5-70.97l-22.07-43.21Z"/>
        <g>
          <path class="cls-4" d="M172.85,234.96l-.56,1.35c.23-.35.45-.7.68-1.05-.04-.1-.08-.2-.12-.3Z"/>
          <path class="cls-4" d="M172.29,236.3c-31.45,13.49-67.02,32.83-103.07,58.09l10.42,56.71-36.94-37.07c-25.07,19.59-49.92,42.05-73.34,67.41l35.69,52.38-60.6-23.56c-18.49,22.89-35.67,47.8-50.83,74.74l36.91,72.65-57.71-31.44c-1.69,3.76-3.35,7.54-4.96,11.37-9.55,22.75-17.28,45.87-23.42,69.08l47.7,94.11-60.29-32.92c-17.98,119.81,2.07,235.52,31.21,308.73.01-.07,50.05-337.79,309.23-740.27Z"/>
        </g>
        <path class="cls-12" d="M-99.15,1049.79l27.35,39.83c37.32-12.96,76.02-30.83,114.84-53.32l-28.06-63.46,65.45,40.36c27.78-18.24,55.4-38.8,82.38-61.59l-29.45-99.36,73.48,59.51c31.3-30.32,59.09-61.84,82.94-93.66l-23.34-79.01,50.09,40.64c41.4-63.97,66.46-127.56,72.05-183.22l1.12-.94c-.34-.03-.68-.04-1.01-.07.03-.34.07-.67.1-1.01l-1.11.94c-34.14-2.3-74.62-1.26-118.21,4.83l-16.52,55.24-16.03-49.82c-31.23,6.04-63.58,14.73-95.98,26.67l7.95,62.88-43.25-48.55c-26.88,11.97-53.51,26.33-79.27,43.43l-.19,81.49-37.09-54.26c-3.21,2.58-6.41,5.19-9.59,7.87-18.85,15.91-36.26,32.98-52.28,50.86l-.34,105.51-38.71-56.75c-70.52,98.51-105.31,210.67-112.67,289.12h0s0,0,0,0c0,0,0,0,0,0h0c37.52,2.77,80.12-2.64,125.35-15.66v-48.52Z"/>
        <g>
          <path class="cls-15" d="M388.78,594.5l-1.11.94c.36-.21.72-.41,1.08-.62.01-.11.02-.21.03-.32Z"/>
          <path class="cls-15" d="M387.66,595.44c-34.14-2.3-74.62-1.26-118.21,4.83l-16.52,55.24-16.03-49.82c-31.23,6.04-63.58,14.73-95.98,26.67l7.95,62.88-43.25-48.55c-26.88,11.97-53.51,26.33-79.27,43.43l-.19,81.49-37.09-54.26c-3.21,2.58-6.41,5.19-9.59,7.87-18.85,15.91-36.26,32.98-52.28,50.86l-.34,105.51-38.71-56.75c-70.52,98.51-105.31,210.67-112.67,289.12.04-.06,198.25-278.04,612.17-518.52Z"/>
        </g>
        <path class="cls-17" d="M-235.06,1178.01l9.16,47.44c39.39,3.03,82.01,2.12,126.58-2.99l-.36-69.38,43.87,63.15c32.76-5.61,66.29-13.43,100.13-23.53l12.7-102.85,43.58,83.91c40.81-15.28,78.88-33.08,113.45-52.71l10.18-81.75,29.67,57.27c63.51-42.1,111.89-90.37,139.26-139.16l1.4-.42c-.3-.16-.6-.31-.9-.46.16-.29.34-.59.5-.88l-1.4.42c-30.38-15.75-67.9-30.97-110.29-42.8l-37.22,44.04,5.21-52.08c-31.04-6.95-64.17-11.9-98.64-13.91l-17.84,60.82-20.24-61.79c-29.42.23-59.58,2.76-90.02,8.13l-32.73,74.62-12.32-64.56c-3.98,1.08-7.96,2.2-11.93,3.38-23.64,7.05-46.42,15.74-68.25,25.73l-42.48,96.58-12.81-67.49c-104.01,62.12-180.72,151.04-218.82,220.01h0s0,0,0,0c0,0,0,0,0,0h0c33.29,17.53,74.5,29.6,121.16,35.74l19.39-44.47Z"/>
        <g>
          <path class="cls-4" d="M394.16,955.63l-1.4.42c.42-.05.82-.09,1.24-.14.05-.09.11-.19.16-.28Z"/>
          <path class="cls-4" d="M392.76,956.05c-30.38-15.75-67.9-30.97-110.29-42.8l-37.22,44.04,5.21-52.08c-31.04-6.95-64.17-11.9-98.64-13.91l-17.84,60.82-20.24-61.79c-29.42.23-59.58,2.76-90.02,8.13l-32.73,74.62-12.32-64.56c-3.98,1.08-7.96,2.2-11.93,3.38-23.64,7.05-46.42,15.74-68.25,25.73l-42.48,96.58-12.81-67.49c-104.01,62.12-180.72,151.04-218.82,220.01.06-.04,292.84-175.65,768.38-230.69Z"/>
        </g>
      </g>
      <path class="cls-11" d="M-29.53,274.42S125.78,284.46,236.2-19.65c110.43-304.11,92.65-12.4,92.65-12.4l37.26,12.99S199,316.94,28.34,350.6c-170.66,33.66-203.14,34.25-203.14,34.25L-29.53,274.42Z"/>
      <path class="cls-10" d="M196.39-154.72h0s0,0,0,0c0,0,0,0,0,0h0c-19.29,23.97-29.6,68.54-24.67,118.16.3,3.06.66,6.08,1.07,9.07-12.14-10.18-25.14-18.3-37.65-24.42-5.65-15.12-12.7-28.08-19.62-37.64h0s0,0,0,0c0,0,0,0,0,0h0c-17.15,12.96-32.51,36.74-42.7,66.71-11.85-32.05-32.32-57.99-49.39-72.29h0,0s0,0,0,0h0C4.14-71.14-6.18-26.58-1.24,23.04c4.9,49.32,23.59,90.78,47.02,110.66l.04.42c.06-.07.12-.15.18-.23.07.06.15.13.22.19l-.04-.42c6.62-8.34,13.52-19.07,19.52-31.59,3.64,14.16,8.96,26.35,15.68,35.75l-.06.41c.08-.06.15-.12.23-.18.06.08.11.16.17.24l.06-.41c19.75-15.13,44.23-42.57,56.73-78.5,26.38,37.4,59.57,62.61,87.69,69.03l.23.35c.02-.09.04-.19.05-.29.09.02.19.04.28.07l-.23-.35c3.29-16.95,4.33-39.86-.18-64.05,16.84-25.22,32.78-64.32,28.57-107.49-4.85-49.64-34.94-91.61-58.53-111.37Z"/>
      <path class="cls-9" d="M2313.26-735.14v-276.37H-695.8v238.05h-315.72v3009.06H0v-144.83h1920.67v183.15h1011.52V-735.14h-618.93ZM0,1079.25V0h1920.67v1079.25H0Z"/>
    </g>
  </g>
</svg>