<?xml version="1.0" encoding="UTF-8"?>
<svg id="_레이어_1" data-name="레이어_1" xmlns="http://www.w3.org/2000/svg" version="1.1" viewBox="0 0 1920 1080">
  <!-- Generator: Adobe Illustrator 30.0.0, SVG Export Plug-In . SVG Version: 2.1.1 Build 123)  -->
  <defs>
    <style>
      .st0 {
        fill: #194536;
      }

      .st1 {
        fill: #419341;
      }

      .st2 {
        fill: #606060;
      }

      .st3 {
        fill: #449641;
      }

      .st4 {
        fill: #55ad55;
      }

      .st5 {
        fill: none;
        stroke: #317a31;
        stroke-miterlimit: 10;
        stroke-width: 3px;
      }

      .st6 {
        fill: #173938;
      }

      .st7 {
        fill: #efeece;
      }

      .st8 {
        fill: #367f36;
      }

      .st9 {
        fill: #e0debd;
      }

      .st10 {
        fill: #1e661f;
      }

      .st11 {
        fill: #254e3d;
      }

      .st12 {
        fill: #c2ce4d;
      }

      .st13 {
        fill: #317a31;
      }

      .st14 {
        fill: #a0a532;
      }
    </style>
  </defs>
  <rect class="st7" x="4.6" y="4.2" width="1920" height="1080"/>
  <g>
    <path class="st9" d="M1751.6,775.9l-28.5,10.2c-16.1-20.3-31.4-43.6-45.2-69.3l36.9-22-49.6-3.5c-9.1-19.5-17.4-40.1-24.5-61.6l49.7-39.7-60.5,3.3c-7-26.9-11.6-53.2-14-78.1l39.5-31.6-41.3,2.3c-1.2-47.8,6.5-89.3,22.2-119.7l-.3-.9c.2.1.4.2.6.3,0-.2.2-.4.3-.6l.3.9c19.6,11.4,41.5,26.8,63.4,45.9l-9.6,34.2,25.6-19.5c15.1,14.5,30,30.9,43.8,48.8l-25.6,29.1,40.2-8.8c10.7,16,20.5,33.1,28.9,51.2l-27.4,41.5,38.7-14c.9,2.5,1.8,5,2.6,7.5,5,15,8.8,30.1,11.6,45.1l-35.4,53.8,40.4-14.7c5.5,76-13.2,145.9-35.7,188.5h0s0,0,0,0c0,0,0,0,0,0h0c-21.6-12.4-43.2-30.8-63.7-54l16.4-24.7Z"/>
    <g>
      <polygon class="st9" points="1798.8 854.6 1798.8 854.6 1798.8 854.6 1798.8 854.6"/>
      <path class="st9" d="M1636.9,364.9l.3.9c-.1-.2-.3-.5-.4-.7,0,0,0-.1,0-.2Z"/>
      <path class="st9" d="M1637.2,365.8c19.6,11.4,41.5,26.8,63.4,45.9l-9.6,34.2,25.6-19.5c15.1,14.5,30,30.9,43.8,48.8l-25.6,29.1,40.2-8.8c10.7,16,20.5,33.1,28.9,51.2l-27.4,41.5,38.7-14c.9,2.5,1.8,5,2.6,7.5,5,15,8.8,30.1,11.6,45.1l-35.4,53.8,40.4-14.7c5.5,76-13.2,145.9-35.7,188.5,0,0-15.2-214.3-161.6-488.8Z"/>
    </g>
    <path class="st9" d="M1770.8,896.5l-19.6,22.1c-23.4-11.6-47.4-26.4-71.2-44.1l21.3-36.7-44.1,18.8c-17-14-33.7-29.4-49.9-46.1l24-58.8-50.3,29.9c-18.6-21.8-34.9-44-48.6-66l19-46.8-34.3,20.4c-23.4-43.6-36.3-85.5-37.1-120.6l-.7-.7c.2,0,.4,0,.7,0,0-.2,0-.4,0-.6l.7.7c22.1,1.8,48.1,6.4,75.8,14.3l7.8,35.8,12.8-29.4c19.8,6.7,40.2,15.2,60.4,25.7l-8.3,38.2,30.3-26c16.7,10,33.1,21.5,48.8,34.5l-4,50.6,26.6-30.1c1.9,1.9,3.9,3.8,5.8,5.8,11.3,11.7,21.7,23.9,31.1,36.5l-5.1,65.5,27.8-31.5c40.4,67.9,57.1,140.8,57.9,190.1h0s0,0,0,0c0,0,0,0,0,0h0c-24.3-1.9-51.4-9.3-79.9-21.7l2.4-30.1Z"/>
    <g>
      <polygon class="st9" points="1848.2 948.3 1848.2 948.3 1848.2 948.3 1848.2 948.3"/>
      <path class="st9" d="M1479.9,567.4l.7.7c-.2-.2-.4-.3-.7-.5,0,0,0-.1,0-.2Z"/>
      <path class="st9" d="M1480.6,568.1c22.1,1.8,48.1,6.4,75.8,14.3l7.8,35.8,12.8-29.4c19.8,6.7,40.2,15.2,60.4,25.7l-8.3,38.2,30.3-26c16.7,10,33.1,21.5,48.8,34.5l-4,50.6,26.6-30.1c1.9,1.9,3.9,3.8,5.8,5.8,11.3,11.7,21.7,23.9,31.1,36.5l-5.1,65.5,27.8-31.5c40.4,67.9,57.1,140.8,57.9,190.1,0,0-113.5-191.4-367.7-380.2Z"/>
    </g>
    <path class="st9" d="M1851.8,989l-8.3,28.6c-25.5-1.9-52.9-6.5-81.3-14l3.7-43-31.4,35c-20.8-6.6-42-14.7-63.2-24.2l-3-65-32.3,47.9c-25.5-13.4-49.1-28.1-70.3-43.5l-2.4-51.7-22,32.7c-38.7-32.2-67.4-66.8-82.6-99.6l-.9-.4c.2,0,.4-.1.6-.2,0-.2-.2-.4-.3-.6l.9.4c20.3-6.9,45.2-12.7,73.1-16l21.7,30.9-.7-32.8c20.3-1.3,41.9-1.3,64.2.8l8.4,39.4,16.1-36.4c18.9,3,38.2,7.4,57.5,13.7l17.3,49.4,11.2-38.9c2.5,1.1,5,2.1,7.5,3.2,14.9,6.6,29.1,14.2,42.6,22.5l22.5,64,11.6-40.6c63.8,48.5,108.6,111,129.7,157.4h0s0,0,0,0c0,0,0,0,0,0h0c-22.3,7.7-49.4,11.2-79.8,10.6l-10.2-29.4Z"/>
    <g>
      <polygon class="st9" points="1941.8 1007.9 1941.8 1007.9 1941.8 1007.9 1941.8 1007.9"/>
      <path class="st9" d="M1458.2,790.9l.9.4c-.3,0-.5-.1-.8-.2,0,0,0-.1,0-.2Z"/>
      <path class="st9" d="M1459.1,791.3c20.3-6.9,45.2-12.7,73.1-16l21.7,30.9-.7-32.8c20.3-1.3,41.9-1.3,64.2.8l8.4,39.4,16.1-36.4c18.9,3,38.2,7.4,57.5,13.7l17.3,49.4,11.2-38.9c2.5,1.1,5,2.1,7.5,3.2,14.9,6.6,29.1,14.2,42.6,22.5l22.5,64,11.6-40.6c63.8,48.5,108.6,111,129.7,157.4,0,0-179.5-137-482.7-216.6Z"/>
    </g>
  </g>
  <path class="st9" d="M1282.3,1367.6s82.3-900.9,74.8-984.9c-7.4-84-41.5-171.9-82.9-427.1-41.4-255.2-24.6-362.9-24.6-362.9l15.2,165.2s83.1,451.3,120.2,443.9c37.1-7.4,134.2-341.5,134.2-341.5l-51.4-69.1,31.5-68.8,76.3,35.7s-27.8,252.8-139.3,558.2c0,0-48.1,720.9,37.4,972.2,85.5,251.3-191.4,79.1-191.4,79.1Z"/>
  <path class="st9" d="M390.6,1108.1s128.7-571.1,117-624.3c-11.6-53.2-64.8-108.9-129.7-270.7-64.8-161.8-38.4-230-38.4-230l23.8,104.7s129.9,286.1,187.9,281.4c58-4.7,209.9-216.4,209.9-216.4l-80.4-43.8,49.3-43.6,119.3,22.6s-43.5,160.2-217.8,353.8c0,0-75.2,457,58.4,616.2,133.7,159.3-299.4,50.1-299.4,50.1Z"/>
  <path class="st9" d="M1505.1,118.4s43.8,715.1,26.3,777.8c-17.6,62.7,1.1,237.9,1.1,237.9l40.6-29.4s-25-913.4,0-986.2c25-72.9-68,0-68,0Z"/>
  <path class="st9" d="M285.9,31.8s43.8,715.1,26.3,777.8c-17.6,62.7,1.1,237.9,1.1,237.9l40.6-29.4s-25-913.4,0-986.2c25-72.9-68,0-68,0Z"/>
  <path class="st9" d="M1331.4,26.2h0s0,0,0,0c0,0,0,0,0,0h0c-28.3,12.2-58.2,46.7-77.1,92.9-1.2,2.8-2.3,5.7-3.3,8.5-6-14.7-13.6-27.9-21.8-39.2,2.1-16,1.9-30.8.3-42.4h0s0,0,0,0h0s0,0,0,0c-21.2,3.4-45.9,17.2-69,39,4.5-33.9-1.4-66.4-9.8-87h0s0,0,0,0t0,0h0c-28.3,12.2-58.2,46.7-77.1,92.9-1.2,2.8-2.3,5.7-3.3,8.5-6-14.7-13.6-27.9-21.8-39.2,2.1-16,1.9-30.8.3-42.4h0s0,0,0,0c0,0,0,0,0,0h0c-24.5,3.9-53.6,21.7-79.4,49.5-.4-.7-.8-1.4-1.2-2.1,4.1-33.3-1.8-65-10-85.3h0,0s0,0,0,0h0c-28.3,12.2-58.2,46.7-77.1,92.9,0,0,0,.1,0,.2-1.4-1.9-2.9-3.8-4.4-5.7,12.8-42.3,6.1-86.6-4.3-112.4h0s0,0,0,0c0,0,0,0,0,0h0c-21.7,9.3-44.4,31.8-62.3,62.7-3.3-1.4-6.6-2.7-9.7-3.8h0s0,0,0,0c0,0,0,0,0,0h0c-5.9,9.2-10.3,20-13.1,31.9-5.1-10.5-11-20.1-17.1-28.6,2.1-16,1.9-30.8.3-42.4h0,0s0,0,0,0h0c-30.4,4.9-67.9,31.1-97.4,71.3-29.4,39.9-43.3,83.2-39.2,113.7l-.2.3c0,0,.2,0,.3,0,0,0,0,.2,0,.3l.2-.3c24.5-4.1,59-16.9,86.9-42.8,5.8,45.4,23.3,83.2,45.2,102v.4c0,0,.2-.2.2-.2,0,0,.1.1.2.2v-.4c10.8-13.4,22.5-33.2,29.8-56.7,1.9-1,3.7-2.1,5.6-3.2,17.9,37.7,46,65.1,75.1,75.4v.4c.2,0,.3-.2.3-.3.1,0,.2,0,.3.1v-.4c9.5-15.4,18.9-36.1,23.6-59,3.3-2.4,6.6-4.9,9.9-7.7.5,2.4,1,4.7,1.6,7-1.6,10.1-1.9,19.6-.7,28.1l-.2.3c0,0,.2,0,.3,0,0,0,0,.2,0,.3l.2-.3c2.8-.5,5.7-1.1,8.8-1.8,8.3,21,19.3,37.9,31.8,48.7v.4c0,0,.2-.2.2-.2,0,0,.1.1.2.2v-.4c14.3-17.8,30.1-46.8,35.4-80.8,3.6-2.8,7.1-5.7,10.5-8.9,5.8,45.4,23.3,83.2,45.2,102v.4c0,0,.2-.2.2-.2,0,0,.1.1.2.2v-.4c10.8-13.4,22.5-33.2,29.8-56.7,6.8-3.6,13.9-8.1,21-13.4-3.4,14.2-4.4,27.5-2.9,38.9l-.2.3c0,0,.2,0,.3,0,0,0,0,.2,0,.3l.2-.3c24.5-4.1,59-16.9,86.9-42.8,5.8,45.4,23.3,83.2,45.2,102v.4c0,0,.2-.2.2-.2,0,0,.1.1.2.2v-.4c10.8-13.4,22.5-33.2,29.8-56.7,26.7-14.4,59.1-41.5,75.6-81.6,19-46.1,12-97.3.4-125.8Z"/>
  <path class="st12" d="M1568.5,630s248,344,248.4,536.9l110.4-44.2s-27.3-96.2-358.8-492.7Z"/>
  <path class="st12" d="M1571.9,537.8s299.9,332.6,241.3,541.9l194.2-66.1s-15.1-99.9-435.5-475.8Z"/>
  <g>
    <path class="st0" d="M2082.1,141.1l-38.8-23.5c-26.9,25.5-53.1,55.7-77.6,89.9l48.5,43.4-71.6-9.3c-16.7,26.3-32.4,54.6-46.7,84.5l63.6,73.6-85.8-22.5c-15.1,38-26.7,75.7-34.8,112.1l50.5,58.6-58.5-15.4c-10.7,70.7-7.6,134.8,9.1,184.5l-.6,1.2c.3-.1.6-.2.9-.3.1.3.2.6.3.9l.6-1.2c30.1-11.2,64.3-27.7,99.2-49.8l-7.2-53.6,32.9,36.4c24.4-17.2,48.7-37.2,71.8-59.9l-31.1-50.7,55.7,24.8c18.4-20.6,35.6-43.2,51-67.8l-31.3-69.8,52.7,32.1c1.8-3.4,3.5-6.9,5.2-10.4,10-20.9,18.3-42.2,25.1-63.7l-40.4-90.4,55,33.6c22.3-111.5,8.7-220.9-15.3-290.8h0s0,0,0,0c0,0,0,0,0,0h0c-33.2,12.1-67.5,33.2-101.2,61.8l18.7,41.5Z"/>
    <g>
      <polygon class="st8" points="2164.6 37.8 2164.6 37.8 2164.6 37.8 2164.6 37.8"/>
      <path class="st8" d="M1840.5,718.9l.6-1.2c-.2.3-.5.6-.7,1,0,0,0,.2,0,.3Z"/>
      <path class="st8" d="M1841.1,717.6c30.1-11.2,64.3-27.7,99.2-49.8l-7.2-53.6,32.9,36.4c24.4-17.2,48.7-37.2,71.8-59.9l-31.1-50.7,55.7,24.8c18.4-20.6,35.6-43.2,51-67.8l-31.3-69.8,52.7,32.1c1.8-3.4,3.5-6.9,5.2-10.4,10-20.9,18.3-42.2,25.1-63.7l-40.4-90.4,55,33.6c22.3-111.5,8.7-220.9-15.3-290.8,0,0-62.2,314.4-323.4,679.9Z"/>
    </g>
    <path class="st14" d="M2132.4-32.6l-23.8-38.6c-35.6,10.5-72.7,25.5-110.1,44.8l23.4,60.8-59.5-40.8c-26.9,15.8-53.7,33.9-80,54l23.1,94.5-66.2-59.1c-30.7,27-58.2,55.3-82,84l18.3,75.1-45.1-40.4c-41.7,58.1-68.1,116.6-75.8,168.5l-1.1.8c.3,0,.6,0,.9.1,0,.3,0,.6-.1.9l1.1-.8c31.9,3.7,69.9,4.6,111,.8l18-51,12.8,47.4c29.6-4.2,60.3-10.9,91.2-20.6l-4.6-59.3,38.3,47.5c25.7-10,51.4-22.3,76.3-37.1l3.9-76.4,32.3,52.5c3.1-2.3,6.2-4.6,9.3-6.9,18.4-14.1,35.5-29.3,51.3-45.3l5.1-98.9,33.7,54.9c70.6-89.1,108.3-192.7,118.7-265.9h0s0,0,0,0c0,0,0,0,0,0h0c-35-4.3-75.2-1.2-118.2,9l-2.2,45.5Z"/>
    <g>
      <polygon class="st12" points="2252.9 -87.1 2252.9 -87.1 2252.9 -87.1 2252.9 -87.1"/>
      <path class="st12" d="M1654.4,372.1l1.1-.8c-.4.2-.7.4-1,.5,0,0,0,.2,0,.3Z"/>
      <path class="st12" d="M1655.5,371.2c31.9,3.7,69.9,4.6,111,.8l18-51,12.8,47.4c29.6-4.2,60.3-10.9,91.2-20.6l-4.6-59.3,38.3,47.5c25.7-10,51.4-22.3,76.3-37.1l3.9-76.4,32.3,52.5c3.1-2.3,6.2-4.6,9.3-6.9,18.4-14.1,35.5-29.3,51.3-45.3l5.1-98.9,33.7,54.9c70.6-89.1,108.3-192.7,118.7-265.9,0,0-198.4,251.6-597.3,458.3Z"/>
    </g>
    <path class="st0" d="M2265.7-146.6l-6.4-44.9c-36.8-4.6-76.8-5.7-118.8-2.9l-2.8,65.1-38.3-61.2c-31,3.8-62.7,9.6-94.9,17.5l-16.6,95.8-37-80.6c-38.9,12.5-75.4,27.4-108.7,44.3l-13.2,76.2-25.2-55c-61.4,36.6-109,79.6-136.8,124.1l-1.3.3c.3.2.6.3.8.5-.2.3-.3.5-.5.8l1.3-.3c27.8,16.1,62.2,32.1,101.4,45.1l36.9-39.6-7.2,48.6c28.8,7.9,59.6,14.1,91.8,17.5l19.5-56.2,16.2,58.8c27.6,1.1,56,.1,84.8-3.5l34.1-68.5,8.6,61.1c3.8-.8,7.6-1.7,11.3-2.6,22.5-5.5,44.2-12.7,65.1-21l44.2-88.6,8.9,63.8c100.3-53.5,176.3-133.4,215.1-196.3h0s0,0,0,0c0,0,0,0,0,0h0c-30.4-17.9-68.5-31.1-112-39l-20.2,40.8Z"/>
    <g>
      <polygon class="st8" points="2397.8 -148.4 2397.8 -148.4 2397.8 -148.4 2397.8 -148.4"/>
      <path class="st8" d="M1665.8,33.3l1.3-.3c-.4,0-.8,0-1.2,0,0,0-.1.2-.2.3Z"/>
      <path class="st8" d="M1667.1,33c27.8,16.1,62.2,32.1,101.4,45.1l36.9-39.6-7.2,48.6c28.8,7.9,59.6,14.1,91.8,17.5l19.5-56.2,16.2,58.8c27.6,1.1,56,.1,84.8-3.5l34.1-68.5,8.6,61.1c3.8-.8,7.6-1.7,11.3-2.6,22.5-5.5,44.2-12.7,65.1-21l44.2-88.6,8.9,63.8c100.3-53.5,176.3-133.4,215.1-196.3,0,0-282.5,151.4-730.7,181.4Z"/>
    </g>
  </g>
  <polyline class="st5" points="453.7 1040.7 506.1 1098.7 577.2 1033.7"/>
  <path class="st10" d="M1011.5-46.5h0s0,0,0,0c0,0,0,0,0,0h0c-28.3,12.2-58.2,46.7-77.1,92.9-1.2,2.8-2.3,5.7-3.3,8.5-6-14.7-13.6-27.9-21.8-39.2,2.1-16,1.9-30.8.3-42.4h0s0,0,0,0h0s0,0,0,0c-21.2,3.4-45.9,17.2-69,39,4.5-33.9-1.4-66.4-9.8-87h0s0,0,0,0t0,0h0c-28.3,12.2-58.2,46.7-77.1,92.9-1.2,2.8-2.3,5.7-3.3,8.5-6-14.7-13.6-27.9-21.8-39.2,2.1-16,1.9-30.8.3-42.4h0s0,0,0,0c0,0,0,0,0,0h0c-24.5,3.9-53.6,21.7-79.4,49.5-.4-.7-.8-1.4-1.2-2.1,4.1-33.3-1.8-65-10-85.3h0,0s0,0,0,0h0c-28.3,12.2-58.2,46.7-77.1,92.9,0,0,0,.1,0,.2-1.4-1.9-2.9-3.8-4.4-5.7,12.8-42.3,6.1-86.6-4.3-112.4h0s0,0,0,0c0,0,0,0,0,0h0c-21.7,9.3-44.4,31.8-62.3,62.7-3.3-1.4-6.6-2.7-9.7-3.8h0s0,0,0,0c0,0,0,0,0,0h0c-5.9,9.2-10.3,20-13.1,31.9-5.1-10.5-11-20.1-17.1-28.6,2.1-16,1.9-30.8.3-42.4h0,0s0,0,0,0h0c-30.4,4.9-67.9,31.1-97.4,71.3-29.4,39.9-43.3,83.2-39.2,113.7l-.2.3c0,0,.2,0,.3,0,0,0,0,.2,0,.3l.2-.3c24.5-4.1,59-16.9,86.9-42.8,5.8,45.4,23.3,83.2,45.2,102v.4c0,0,.2-.2.2-.2,0,0,.1.1.2.2v-.4c10.8-13.4,22.5-33.2,29.8-56.7,1.9-1,3.7-2.1,5.6-3.2,17.9,37.7,46,65.1,75.1,75.4v.4c.2,0,.3-.2.3-.3.1,0,.2,0,.3.1v-.4c9.5-15.4,18.9-36.1,23.6-59,3.3-2.4,6.6-4.9,9.9-7.7.5,2.4,1,4.7,1.6,7-1.6,10.1-1.9,19.6-.7,28.1l-.2.3c0,0,.2,0,.3,0,0,0,0,.2,0,.3l.2-.3c2.8-.5,5.7-1.1,8.8-1.8,8.3,21,19.3,37.9,31.8,48.7v.4c0,0,.2-.2.2-.2,0,0,.1.1.2.2v-.4c14.3-17.8,30.1-46.8,35.4-80.8,3.6-2.8,7.1-5.7,10.5-8.9,5.8,45.4,23.3,83.2,45.2,102v.4c0,0,.2-.2.2-.2,0,0,.1.1.2.2v-.4c10.8-13.4,22.5-33.2,29.8-56.7,6.8-3.6,13.9-8.1,21-13.4-3.4,14.2-4.4,27.5-2.9,38.9l-.2.3c0,0,.2,0,.3,0,0,0,0,.2,0,.3l.2-.3c24.5-4.1,59-16.9,86.9-42.8,5.8,45.4,23.3,83.2,45.2,102v.4c0,0,.2-.2.2-.2,0,0,.1.1.2.2v-.4c10.8-13.4,22.5-33.2,29.8-56.7,26.7-14.4,59.1-41.5,75.6-81.6,19-46.1,12-97.3.4-125.8Z"/>
  <path class="st8" d="M979.1,2.4c-6.5-32.5-23.8-60.5-42.1-80.7.3-16.1-1.4-30.8-4.3-42.2h0s0,0,0,0t0,0h0c-23.9,6.6-50.9,27.4-73.6,57.8-.5-.6-.9-1.3-1.4-1.9.5-33.5-8.8-64.4-19.2-83.7h0s0,0,0,0h0s0,0,0,0c-26.8,15.1-52.9,52.7-66.7,100.6,0,0,0,.1,0,.2-1.6-1.8-3.3-3.5-5-5.2,8.2-43.5-3.2-86.8-16.4-111.3h0s0,0,0,0c0,0,0,0,0,0h0c-20.6,11.6-40.7,36.4-55.2,69-3.5-1.1-6.8-1.9-10.1-2.7h0s0,0,0,0h0,0c-4.8,9.8-8,21-9.6,33.1-6.2-9.9-13.1-18.8-20.1-26.6.3-16.1-1.4-30.8-4.3-42.2h0,0s0,0,0,0h0c-29.7,8.1-64.1,38.2-89.2,81.3-24.9,42.8-34,87.4-26.7,117.2l-.2.4c0,0,.2,0,.3,0,0,0,0,.2,0,.3l.2-.4c23.9-6.7,56.8-23.2,81.8-51.9,10.7,44.5,32.2,80.2,55.9,96.6v.4c.1,0,.2-.2.2-.2,0,0,.2.1.2.2v-.4c9.2-14.5,18.7-35.4,23.5-59.6,1.7-1.2,3.5-2.5,5.3-3.8,21.9,35.6,52.7,59.7,82.8,66.8l.2.4c0-.1,0-.2.1-.3.1,0,.2,0,.3,0l-.2-.4c8-16.4,15-38,17.3-61.2,3-2.7,6-5.6,9-8.7.8,2.3,1.5,4.6,2.4,6.8-.5,10.2.3,19.7,2.3,28l-.2.4c0,0,.2,0,.3,0,0,0,0,.2,0,.3l.2-.4c2.7-.8,5.6-1.7,8.5-2.7,10.5,20,23.3,35.6,36.9,45v.4c.1,0,.2-.2.2-.2,0,0,.2.1.2.2v-.4c12.3-19.3,24.9-49.8,26.4-84.2,3.2-3.1,6.4-6.5,9.4-10,10.7,44.5,32.2,80.2,55.9,96.6v.4c.1,0,.2-.2.2-.2,0,0,.2.1.2.2v-.4c16.5-25.9,33.5-71.8,23.8-120.4Z"/>
  <path class="st3" d="M1742.2-94h0s0,0,0,0t0,0h0c-30,16.9-58.2,31.2-73.6,84.6-1,3.3-1.8,6.6-2.6,9.8-8.4-15.6-19.6-1.7-30.1-13.2.4-18-1.6-34.3-4.8-47.1h0s0,0,0,0c0,0,0,0,0,0h0c-23.2,6.3-49.1,24.6-72.1,51.5,1-38.1-9.6-73.4-21.4-95.3h0s0,0,0,0c0,0,0,0,0,0h0c-30,16.9-57.4,28.3-72.9,81.8-1,3.3-1.8,6.6-2.6,9.8-8.4-15.6-20.3,1.2-30.8-10.3.4-18-1.6-34.3-4.8-47.1h0s0,0,0,0h0s0,0,0,0c-26.8,7.3-57,30.5-82.5,64.4-.5-.7-1-1.4-1.5-2.2.6-37.4-9.8-71.9-21.5-93.4h0s0,0,0,0c0,0,0,0,0,0h0c-30,16.9-59,47.2-74.4,100.7,0,0-.4-14.1-.3-2.7-1.8-2-1.9-.2-3.8-2.1,9.2-48.5-5.3-86.1-20.1-113.4h0s0,0,0,0c-23,13-45.6,40.7-61.8,77-3.9-1.2-7.6-2.2-11.3-3h0s0,0,0,0c0,0,0,0,0,0h0c-5.4,10.9-9,23.4-10.7,36.9-6.9-11-14.6-21-22.5-29.7.4-18-1.6-34.3-4.8-47.1h0s0,0,0,0c-33.2,9.1-71.8,42.6-99.9,90.7-27.9,47.8-38.1,97.5-29.9,130.8l-.2.4c.1,0,.2,0,.3,0,0,.1,0,.2,0,.3l.2-.4c26.8-7.5,63.7-25.9,91.6-57.9,11.9,49.6,36,89.5,62.6,107.7v.5c.2,0,.2-.2.3-.3,0,0,.2.1.3.2v-.5c10.4-16.2,20.9-39.5,26.3-66.4,1.9-1.3,3.9-2.7,5.9-4.2,24.5,39.7,59.1,66.6,92.8,74.5l.2.4c0-.1.1-.2.2-.3.1,0,.2,0,.4,0l-.2-.4c8.9-18.2,16.8-42.3,19.4-68.3,3.4-3,6.8-6.3,10.1-9.7.9,2.6,1.7,5.1,2.6,7.6-.6,11.4.3,21.9,2.6,31.2l-.2.4c.1,0,.2,0,.3,0,0,.1,0,.2,0,.3l.2-.4c3.1-.9,6.3-1.9,9.6-3,11.8,22.3,26.1,39.7,41.3,50.2v.5c.2,0,.2-.2.3-.3,0,0,.2.1.3.2v-.5c13.8-21.5,27.9-55.5,29.6-93.9,3.6-3.5,7.2-7.2,10.6-11.1,11.9,49.6,36,89.5,62.6,107.7v.5c.2,0,.2-.2.3-.3,0,0,.2.1.3.2v-.5c10.4-16.2,20.9-39.5,26.3-66.4,7.1-4.9,14.5-10.7,21.8-17.4-2.1,16.2-1.6,31,1.5,43.5l-.2.4c.1,0,.2,0,.3,0,0,.1,0,.2,0,.3l.2-.4c26.8-7.5,63.7-25.9,91.6-57.9,11.9,49.6,36,89.5,62.6,107.7v.5c.2,0,.2-.2.3-.3,0,0,.2.1.3.2v-.5c10.4-16.2,20.9-39.5,26.3-66.4,28-19.2,60.8-53.1,74.3-99.6,15.5-53.4,1.6-109.3-14.7-139.6Z"/>
  <path class="st12" d="M1753.3,468.8s238.8,378.9,145.3,575.1l202.6-32s2.2-101-347.9-543.1Z"/>
  <path class="st9" d="M196.8,820.9c3.6,2.2,33.1-63.2,131.8-97,0,0-84.5,100.6-30.3,90.9,54.2-9.7,44.2-37.6,48.9-36.9s41,23.2,39.4,33.3c-1.6,10.1,31.8-44.4,72.6-45.9,0,0-30.1,69.4-.9,55.7,29.3-13.7,36-36.2,36-36.2,0,0,2.3,86.1,30.7,57.9,28.4-28.2,30.2-39.8,30.2-39.8,0,0-10.3,59.8,30,62.2,40.3,2.4,45-42.3,45-42.3,0,0,3.9,55.6,26.1,56.7,22.1,1.1,47.1-30.8,18.3-75.2,0,0,55.6,36.7,52.8,59.4-2.8,22.7,43.1-.2,43.1-.2,0,0-3.8,43.9,7.7,41.7,11.5-2.2,35.3-6.4,14.1-48.8,0,0,80.5,30.3,96.3,96.6,15.8,66.3,104,239.1,104,239.1l-906.6-144.8,110.8-226.4Z"/>
  <path class="st12" d="M685.2,979.1c3.9,2.4,22.8-100.1,115-172.4,0,0-67.7,166.7-15.7,139.9,52-26.8,37.8-65.3,42.5-65.3s44.1,24.5,44.1,39.6,24.4-72.3,64.6-83.9c0,0-18.9,108.4,7.9,81.6,26.8-26.8,29.9-61.2,29.9-61.2,0,0,15.7,125.3,39.4,77.5,23.6-47.8,23.6-65.3,23.6-65.3,0,0-.8,89.7,39.4,83.9,40.2-5.8,37.8-72.3,37.8-72.3,0,0,12.6,80.4,34.6,76.9s41.7-55.9,6.3-114.2c0,0,60.6,40.8,61.4,74.6.8,33.8,42.5-10.3,42.5-10.3,0,0,3.1,65.1,14.2,59.2,11-5.8,33.9-17.6,6.3-74.6,0,0,84.2,25.7,110.2,118.9,26,93.2,140.1,325.4,140.1,325.4l-918-1.5,74-356.7Z"/>
  <path class="st12" d="M720.9,771.8s28.4,305.2-83.4,467.3c4.4-95.7,4.9-229.7-3.3-416.5,0,0-23.9,449.1-196.6,563l166.5,83.9s10.1-15.4,19.7-77.6l170.3,93.1s72.3-73.8-73.2-713.3Z"/>
  <path class="st12" d="M1551.8,733.5s248,344,248.4,536.9l110.4-44.2s-27.3-96.2-358.8-492.7Z"/>
  <path class="st12" d="M1555.2,641.2s299.9,332.6,241.3,541.9l194.2-66.1s-15.1-99.9-435.5-475.8Z"/>
  <path class="st8" d="M-7.2,1040.6c3.9,1.7,22.8-67.6,115-116.5,0,0-67.7,112.6-15.7,94.5,52-18.1,37.8-44.1,42.5-44.1s44.1,16.5,44.1,26.8,24.4-48.8,64.6-56.7c0,0-18.9,73.2,7.9,55.1,26.8-18.1,29.9-41.4,29.9-41.4,0,0,15.7,84.7,39.4,52.4,23.6-32.3,23.6-44.1,23.6-44.1,0,0-.8,60.6,39.4,56.7,40.2-3.9,37.8-48.8,37.8-48.8,0,0,12.6,54.3,34.6,52,22-2.4,41.7-37.8,6.3-77.2,0,0,60.6,27.6,61.4,50.4s42.5-6.9,42.5-6.9c0,0,3.1,43.9,14.2,40s33.9-11.9,6.3-50.4c0,0,84.2,17.3,110.2,80.3,26,63,140.1,219.8,140.1,219.8l-918-1L-7.2,1040.6Z"/>
  <g>
    <path class="st12" d="M330.5,885l-.3-.8c0,.2-.1.4-.2.5-.2,0-.4-.2-.5-.2l.3.8c-23.7,56.6-41.2,152.9-5.3,245.1,36.2,92.8,116.7,157.2,172.8,182.5h0s0,0,0,0h0s0,0,0,0c24.1-56.5,19.9-147.8-16.5-240.5-36.1-92.2-94.4-161.8-150.2-187.3Z"/>
    <path class="st5" d="M497.2,1312.9s-139.2-236.1-167-428.7"/>
    <polyline class="st5" points="309.2 1046 382.9 1072.1 414.4 981.1"/>
    <polyline class="st5" points="371.9 1171.8 437.8 1203.8 450.1 1099.7"/>
  </g>
  <path class="st0" d="M728.6,928.4l.3-.8c-.2,0-.4.2-.5.2,0-.2-.1-.4-.2-.5l-.3.8c-56.4,24.2-135.9,81.2-174.3,172.4-38.6,91.8-25.5,194.2-2.7,251.3h0s0,0,0,0h0s0,0,0,0c56.6-23.9,117-92.4,155.4-184.3,38.2-91.3,44.6-181.9,22.3-239.1Z"/>
  <path class="st4" d="M567.1,837.3v-.8c0,.1-.2.2-.3.4-.1-.2-.2-.3-.3-.5v.8c-47.9,38.5-109.2,114.8-121.5,213-12.4,98.8,27.7,193.8,65,242.7h0s0,0,0,0h0s0,0,0,0c48.1-38.2,87.8-120.5,100.1-219.4,12.2-98.2-6-187.2-42.9-236.3Z"/>
  <path class="st5" d="M510,1292.9s-10-273.9,57.3-456.5"/>
  <polyline class="st5" points="467 1109.2 509.7 1168.7 570 1083"/>
  <path class="st8" d="M714.8,1109.1c3.9,2.4,22.8-100.1,115-172.4,0,0-67.7,166.7-15.7,139.9,52-26.8,37.8-65.3,42.5-65.3s44.1,24.5,44.1,39.6,24.4-72.3,64.6-83.9c0,0-18.9,108.4,7.9,81.6,26.8-26.8,29.9-61.2,29.9-61.2,0,0,15.7,125.3,39.4,77.5,23.6-47.8,23.6-65.3,23.6-65.3,0,0-.8,89.7,39.4,83.9,40.2-5.8,37.8-72.3,37.8-72.3,0,0,12.6,80.4,34.6,76.9,22-3.5,41.7-55.9,6.3-114.2,0,0,60.6,40.8,61.4,74.6s42.5-10.3,42.5-10.3c0,0,3.1,65.1,14.2,59.2,11-5.8,33.9-17.6,6.3-74.6,0,0,84.2,25.7,110.2,118.9,26,93.2,140.1,325.4,140.1,325.4l-918-1.5,74-356.7Z"/>
  <g>
    <path class="st1" d="M1549.4,850.8c-59.4-18.4-82.6-10-82.6-10l-52.7,249.8-29.7-249.1s-22.6-9.9-83.1,4.5c-60.5,14.4-76.2,33.5-76.2,33.5l85,253.6-130.7-212.6s-54,14.6-94.8,61.6c-40.8,46.9-42.5,71.5-42.5,71.5l309.2,238.4c10.3,17.1,28.8,27.7,48.8,27.8,9.1,1.2,18.4.2,27.1-2.9,21.8-1.8,41.5-15.9,49.4-37.6l146.5-390.1s-14.4-20-73.8-38.5Z"/>
    <polygon class="st13" points="1084.7 982.1 1427.3 1316.9 1081.4 985.9 1084.7 982.1"/>
    <polygon class="st13" points="1281.2 852.1 1406.3 1314.5 1276.4 853.7 1281.2 852.1"/>
    <polygon class="st13" points="1516.6 842.9 1399.1 1307.3 1511.6 842 1516.6 842.9"/>
  </g>
  <g>
    <path class="st11" d="M1774.8,776.8c-48.1-14.9-66.8-8.1-66.8-8.1l-38.9,157.4-27.9-156.8s-18.3-8-67.2,3.7c-48.9,11.7-61.6,27.1-61.6,27.1l43,142.7-104.1-101.8s-19.5,4.1-52.5,42.1c-33,38-34.4,57.9-34.4,57.9l250.2,192.9c8.3,13.8,23.3,22.4,39.5,22.5,7.4,1,14.9.2,21.9-2.4,17.6-1.4,33.6-12.8,40-30.4l118.5-315.7s-11.7-16.2-59.7-31.1Z"/>
    <polygon class="st3" points="1398.7 883 1676 1154 1396.1 886.1 1398.7 883"/>
    <polygon class="st3" points="1557.8 777.8 1659 1152 1553.9 779.1 1557.8 777.8"/>
    <polygon class="st3" points="1748.3 770.4 1653.2 1146.3 1744.3 769.7 1748.3 770.4"/>
  </g>
  <g>
    <path class="st1" d="M2016.3,854.8c-59.4-18.4-82.6-10-82.6-10l-52.7,249.8-29.7-249.1s-22.6-9.9-83.1,4.5c-60.5,14.4-76.2,33.5-76.2,33.5l85,253.6-130.7-212.6s-54,14.6-94.8,61.6c-40.8,46.9-42.5,71.5-42.5,71.5l309.2,238.4c10.3,17.1,28.8,27.7,48.8,27.8,9.1,1.2,18.4.2,27.1-2.9,21.8-1.8,41.5-15.9,49.4-37.6l146.5-390.1s-14.4-20-73.8-38.5Z"/>
    <polygon class="st13" points="1551.6 986.1 1894.2 1321 1548.3 990 1551.6 986.1"/>
    <polygon class="st13" points="1748.1 856.1 1873.2 1318.5 1743.3 857.8 1748.1 856.1"/>
    <polygon class="st13" points="1983.5 847 1866.1 1311.4 1978.6 846.1 1983.5 847"/>
  </g>
  <path class="st8" d="M1353.1,1115.7c4.2,1.9,8.4-102.3,89.3-187,0,0-43.3,174.6,4.3,140.7,47.6-33.9,28.1-70,32.8-70.6,4.7-.7,47.1,18,49.3,33,2.2,15,13.9-75,52-92.2,0,0-3.3,110,19.4,79.6,22.7-30.3,20.9-64.8,20.9-64.8,0,0,33.4,121.8,50,71.2,16.6-50.7,14.1-68,14.1-68,0,0,12,88.9,50.9,77.5,38.9-11.5,27.1-76.9,27.1-76.9,0,0,23.9,77.8,45.2,71.2,21.3-6.6,33.4-61.3-10-114,0,0,65.8,31.8,71.4,65.1,5.6,33.3,40.6-16.2,40.6-16.2,0,0,12.4,64,22.4,56.6,10.1-7.3,31-22.2-4.4-74.8,0,0,87,13.4,126,102,39,88.6,185,302.2,185,302.2l-908.9,128.9,22.6-363.6Z"/>
  <g>
    <path class="st0" d="M-190.2,667.6l42.5,23c27.3-28.5,53.7-62,78-99.7l-53.9-43.7,76.6,6.2c16.4-28.9,31.7-59.8,45.3-92.3l-71.4-75.1,92.5,19.6c14.1-41.2,24.5-82,31.2-121.1L-6,224.6l63.1,13.4c7.8-75.8,1.1-143.8-19.2-195.9l.6-1.3c-.3.1-.6.3-.9.4-.1-.3-.2-.6-.4-.9l-.6,1.3c-31.4,13.5-67,32.8-103.1,58.1l10.4,56.7-36.9-37.1c-25.1,19.6-49.9,42-73.3,67.4l35.7,52.4-60.6-23.6c-18.5,22.9-35.7,47.8-50.8,74.7l36.9,72.6-57.7-31.4c-1.7,3.8-3.4,7.5-5,11.4-9.6,22.7-17.3,45.9-23.4,69.1l47.7,94.1-60.3-32.9c-18,119.8,2.1,235.5,31.2,308.7h0s0,0,0,0c0,0,0,0,0,0h0c34.7-14.6,70.2-38.8,104.5-71l-22.1-43.2Z"/>
    <g>
      <polygon class="st8" points="-272.7 781.7 -272.7 781.7 -272.7 781.7 -272.7 781.7"/>
      <path class="st8" d="M37.1,40.1l-.6,1.3c.2-.4.5-.7.7-1,0,0,0-.2-.1-.3Z"/>
      <path class="st8" d="M36.6,41.5c-31.4,13.5-67,32.8-103.1,58.1l10.4,56.7-36.9-37.1c-25.1,19.6-49.9,42-73.3,67.4l35.7,52.4-60.6-23.6c-18.5,22.9-35.7,47.8-50.8,74.7l36.9,72.6-57.7-31.4c-1.7,3.8-3.4,7.5-5,11.4-9.6,22.7-17.3,45.9-23.4,69.1l47.7,94.1-60.3-32.9c-18,119.8,2.1,235.5,31.2,308.7,0,0,50-337.8,309.2-740.3Z"/>
    </g>
    <path class="st14" d="M-234.9,855l27.4,39.8c37.3-13,76-30.8,114.8-53.3l-28.1-63.5,65.4,40.4c27.8-18.2,55.4-38.8,82.4-61.6l-29.5-99.4,73.5,59.5c31.3-30.3,59.1-61.8,82.9-93.7l-23.3-79,50.1,40.6c41.4-64,66.5-127.6,72-183.2l1.1-.9c-.3,0-.7,0-1,0,0-.3,0-.7.1-1l-1.1.9c-34.1-2.3-74.6-1.3-118.2,4.8l-16.5,55.2-16-49.8c-31.2,6-63.6,14.7-96,26.7l8,62.9-43.2-48.6c-26.9,12-53.5,26.3-79.3,43.4l-.2,81.5-37.1-54.3c-3.2,2.6-6.4,5.2-9.6,7.9-18.9,15.9-36.3,33-52.3,50.9l-.3,105.5-38.7-56.7c-70.5,98.5-105.3,210.7-112.7,289.1h0s0,0,0,0c0,0,0,0,0,0h0c37.5,2.8,80.1-2.6,125.3-15.7v-48.5Z"/>
    <g>
      <polygon class="st12" points="-360.2 919.1 -360.2 919.1 -360.2 919.1 -360.2 919.1"/>
      <path class="st12" d="M253.1,399.7l-1.1.9c.4-.2.7-.4,1.1-.6,0-.1,0-.2,0-.3Z"/>
      <path class="st12" d="M251.9,400.6c-34.1-2.3-74.6-1.3-118.2,4.8l-16.5,55.2-16-49.8c-31.2,6-63.6,14.7-96,26.7l8,62.9-43.2-48.6c-26.9,12-53.5,26.3-79.3,43.4l-.2,81.5-37.1-54.3c-3.2,2.6-6.4,5.2-9.6,7.9-18.9,15.9-36.3,33-52.3,50.9l-.3,105.5-38.7-56.7c-70.5,98.5-105.3,210.7-112.7,289.1,0,0,198.2-278,612.2-518.5Z"/>
    </g>
    <path class="st0" d="M-370.8,983.2l9.2,47.4c39.4,3,82,2.1,126.6-3l-.4-69.4,43.9,63.2c32.8-5.6,66.3-13.4,100.1-23.5l12.7-102.8,43.6,83.9c40.8-15.3,78.9-33.1,113.5-52.7l10.2-81.8,29.7,57.3c63.5-42.1,111.9-90.4,139.3-139.2l1.4-.4c-.3-.2-.6-.3-.9-.5.2-.3.3-.6.5-.9l-1.4.4c-30.4-15.7-67.9-31-110.3-42.8l-37.2,44,5.2-52.1c-31-6.9-64.2-11.9-98.6-13.9l-17.8,60.8-20.2-61.8c-29.4.2-59.6,2.8-90,8.1l-32.7,74.6-12.3-64.6c-4,1.1-8,2.2-11.9,3.4-23.6,7.1-46.4,15.7-68.2,25.7l-42.5,96.6-12.8-67.5c-104,62.1-180.7,151-218.8,220h0s0,0,0,0c0,0,0,0,0,0h0c33.3,17.5,74.5,29.6,121.2,35.7l19.4-44.5Z"/>
    <g>
      <polygon class="st8" points="-511.3 991.9 -511.3 991.9 -511.3 991.9 -511.3 991.9"/>
      <path class="st8" d="M258.4,760.8l-1.4.4c.4,0,.8,0,1.2-.1,0,0,.1-.2.2-.3Z"/>
      <path class="st8" d="M257,761.2c-30.4-15.7-67.9-31-110.3-42.8l-37.2,44,5.2-52.1c-31-6.9-64.2-11.9-98.6-13.9l-17.8,60.8-20.2-61.8c-29.4.2-59.6,2.8-90,8.1l-32.7,74.6-12.3-64.6c-4,1.1-8,2.2-11.9,3.4-23.6,7.1-46.4,15.7-68.2,25.7l-42.5,96.6-12.8-67.5c-104,62.1-180.7,151-218.8,220,0,0,292.8-175.7,768.4-230.7Z"/>
    </g>
  </g>
  <path class="st6" d="M-27.8,276.8S127.5,286.9,237.9-17.2c110.4-304.1,92.7-12.4,92.7-12.4l37.3,13S200.7,319.4,30,353c-170.7,33.7-203.1,34.2-203.1,34.2L-27.8,276.8Z"/>
  <path class="st3" d="M198.1-152.3h0s0,0,0,0c0,0,0,0,0,0h0c-19.3,24-29.6,68.5-24.7,118.2.3,3.1.7,6.1,1.1,9.1-12.1-10.2-25.1-18.3-37.6-24.4-5.6-15.1-12.7-28.1-19.6-37.6h0s0,0,0,0c0,0,0,0,0,0h0c-17.2,13-32.5,36.7-42.7,66.7-11.8-32.1-32.3-58-49.4-72.3h0,0s0,0,0,0h0C5.8-68.7-4.5-24.2.4,25.5c4.9,49.3,23.6,90.8,47,110.7v.4c.1,0,.2-.2.2-.2,0,0,.1.1.2.2v-.4c6.6-8.3,13.5-19.1,19.5-31.6,3.6,14.2,9,26.4,15.7,35.7v.4c0,0,0-.1.2-.2,0,0,.1.2.2.2v-.4c19.8-15.1,44.3-42.6,56.8-78.5,26.4,37.4,59.6,62.6,87.7,69l.2.4c0,0,0-.2,0-.3,0,0,.2,0,.3,0l-.2-.4c3.3-17,4.3-39.9-.2-64,16.8-25.2,32.8-64.3,28.6-107.5-4.8-49.6-34.9-91.6-58.5-111.4Z"/>
  <path class="st2" d="M2312.9-732.7v-276.4H-696.1v238.1h-315.7v3009.1H-.3v-144.8h1920.7v183.2h1011.5V-732.7h-618.9ZM-.3,1081.7V2.4h1920.7v1079.2H-.3Z"/>
</svg>