<svg width="100" height="102" viewBox="0 0 100 102" fill="none" xmlns="http://www.w3.org/2000/svg">
<path d="M100 52.1591C100 48.5427 99.6753 45.0655 99.0724 41.7273H51.0204V61.4782H78.4787C77.2727 67.83 73.6549 73.2082 68.2282 76.8245V89.6673H84.7866C94.4341 80.7655 100 67.6909 100 52.1591Z" fill="#4285F4"/>
<path d="M51.0204 102C64.7959 102 76.3451 97.4564 84.7866 89.6673L68.2282 76.8245C63.6827 79.8845 57.885 81.7391 51.0204 81.7391C37.7551 81.7391 26.4842 72.7909 22.449 60.7364H5.4731V73.9036C13.8683 90.5482 31.0761 102 51.0204 102Z" fill="#34A853"/>
<path d="M22.449 60.69C21.4286 57.63 20.8256 54.3845 20.8256 51C20.8256 47.6155 21.4286 44.37 22.449 41.31V28.1427H5.4731C1.99443 35.0045 0 42.7473 0 51C0 59.2527 1.99443 66.9955 5.4731 73.8573L18.692 63.5645L22.449 60.69Z" fill="#FBBC05"/>
<path d="M51.0204 20.3073C58.5343 20.3073 65.2134 22.9036 70.5473 27.9109L85.1577 13.3064C76.2987 5.05364 64.7959 0 51.0204 0C31.0761 0 13.8683 11.4518 5.4731 28.1427L22.449 41.31C26.4842 29.2555 37.7551 20.3073 51.0204 20.3073Z" fill="#EA4335"/>
</svg>
