<svg width="40" height="42" viewBox="0 0 40 42" fill="none" xmlns="http://www.w3.org/2000/svg">
<g clip-path="url(#paint0_angular_2_22_clip_path)" data-figma-skip-parse="true"><g transform="matrix(0.021 0 0 0.02 20 21)"><foreignObject x="-1100" y="-1100" width="2200" height="2200"><div xmlns="http://www.w3.org/1999/xhtml" style="background:conic-gradient(from 90deg,rgba(252, 200, 43, 1) 0deg,rgba(255, 229, 153, 1) 360deg);height:100%;width:100%;opacity:1"></div></foreignObject></g></g><ellipse cx="20" cy="21" rx="20" ry="21" data-figma-gradient-fill="{&#34;type&#34;:&#34;GRADIENT_ANGULAR&#34;,&#34;stops&#34;:[{&#34;color&#34;:{&#34;r&#34;:0.99038463830947876,&#34;g&#34;:0.78564155101776123,&#34;b&#34;:0.17141272127628326,&#34;a&#34;:1.0},&#34;position&#34;:0.0},{&#34;color&#34;:{&#34;r&#34;:1.0,&#34;g&#34;:0.90024030208587646,&#34;b&#34;:0.60096156597137451,&#34;a&#34;:1.0},&#34;position&#34;:1.0}],&#34;stopsVar&#34;:[{&#34;color&#34;:{&#34;r&#34;:0.99038463830947876,&#34;g&#34;:0.78564155101776123,&#34;b&#34;:0.17141272127628326,&#34;a&#34;:1.0},&#34;position&#34;:0.0},{&#34;color&#34;:{&#34;r&#34;:1.0,&#34;g&#34;:0.90024030208587646,&#34;b&#34;:0.60096156597137451,&#34;a&#34;:1.0},&#34;position&#34;:1.0}],&#34;transform&#34;:{&#34;m00&#34;:42.0,&#34;m01&#34;:9.9196392677118432e-15,&#34;m02&#34;:-1.0000009536743164,&#34;m10&#34;:-1.0164569008805791e-14,&#34;m11&#34;:40.0,&#34;m12&#34;:0.99999880790710449},&#34;opacity&#34;:1.0,&#34;blendMode&#34;:&#34;NORMAL&#34;,&#34;visible&#34;:true}"/>
<path d="M18.0922 16.013C16.8502 16.472 15.7972 16.229 15.3112 15.365C14.5552 14.123 15.1492 12.881 15.9052 12.368L18.6862 10.424C18.7942 10.343 19.4152 9.857 20.0902 9.857C20.9272 9.776 22.5202 10.64 22.5202 11.99C22.6012 16.283 22.5742 24.518 22.5472 28.73C22.5472 29.837 21.1432 30.377 20.1982 30.323C19.1722 30.323 18.0382 29.648 18.0382 28.676C18.0652 25.517 18.0922 18.686 18.0922 16.013Z" fill="white"/>
<defs>
<clipPath id="paint0_angular_2_22_clip_path"><ellipse cx="20" cy="21" rx="20" ry="21"/></clipPath></defs>
</svg>
