<svg width="40" height="42" viewBox="0 0 40 42" fill="none" xmlns="http://www.w3.org/2000/svg">
<g clip-path="url(#paint0_angular_2_25_clip_path)" data-figma-skip-parse="true"><g transform="matrix(0.021 0 0 0.02 20 21)"><foreignObject x="-1100" y="-1100" width="2200" height="2200"><div xmlns="http://www.w3.org/1999/xhtml" style="background:conic-gradient(from 90deg,rgba(112, 109, 109, 1) 0deg,rgba(214, 214, 214, 1) 360deg);height:100%;width:100%;opacity:1"></div></foreignObject></g></g><ellipse cx="20" cy="21" rx="20" ry="21" data-figma-gradient-fill="{&#34;type&#34;:&#34;GRADIENT_ANGULAR&#34;,&#34;stops&#34;:[{&#34;color&#34;:{&#34;r&#34;:0.44230768084526062,&#34;g&#34;:0.42848557233810425,&#34;b&#34;:0.42848557233810425,&#34;a&#34;:1.0},&#34;position&#34;:0.0},{&#34;color&#34;:{&#34;r&#34;:0.84134614467620850,&#34;g&#34;:0.84134614467620850,&#34;b&#34;:0.84134614467620850,&#34;a&#34;:1.0},&#34;position&#34;:1.0}],&#34;stopsVar&#34;:[{&#34;color&#34;:{&#34;r&#34;:0.44230768084526062,&#34;g&#34;:0.42848557233810425,&#34;b&#34;:0.42848557233810425,&#34;a&#34;:1.0},&#34;position&#34;:0.0},{&#34;color&#34;:{&#34;r&#34;:0.84134614467620850,&#34;g&#34;:0.84134614467620850,&#34;b&#34;:0.84134614467620850,&#34;a&#34;:1.0},&#34;position&#34;:1.0}],&#34;transform&#34;:{&#34;m00&#34;:42.0,&#34;m01&#34;:9.9196392677118432e-15,&#34;m02&#34;:-1.0000009536743164,&#34;m10&#34;:-1.0164569008805791e-14,&#34;m11&#34;:40.0,&#34;m12&#34;:0.99999880790710449},&#34;opacity&#34;:1.0,&#34;blendMode&#34;:&#34;NORMAL&#34;,&#34;visible&#34;:true}"/>
<path d="M17.4856 11.801C17.3236 13.394 16.9186 18.605 16.9726 21.44C16.9996 21.899 17.2696 22.277 17.7556 22.385C18.4576 22.52 19.4836 22.601 20.3746 22.628C20.4286 18.767 20.4016 14.474 20.2936 11.747C20.2396 10.694 21.1576 9.992 22.2916 9.857C23.2636 9.749 24.7486 10.154 24.8026 11.369C24.9646 13.691 25.0456 18.146 24.9916 22.25C25.3156 22.169 25.6396 22.115 25.9096 22.034C26.8006 21.764 28.1776 22.088 28.4476 23.438C28.7446 24.896 27.9346 25.733 27.1246 26.111C26.5576 26.381 25.7746 26.597 24.9106 26.759C24.8566 27.515 24.8296 28.217 24.8026 28.811C24.7486 29.972 23.2636 30.431 22.3186 30.323C21.2116 30.269 20.2396 29.486 20.2936 28.487C20.2936 28.082 20.3206 27.596 20.3206 27.11C18.4036 27.029 15.6766 26.678 14.6506 26.219C13.9216 25.868 12.8146 25.193 12.5446 23.816C12.1126 21.521 12.5716 13.205 12.9496 11.126C13.1116 10.262 14.0836 9.722 15.4876 9.884C16.8916 10.046 17.5666 10.964 17.4856 11.801Z" fill="white"/>
<defs>
<clipPath id="paint0_angular_2_25_clip_path"><ellipse cx="20" cy="21" rx="20" ry="21"/></clipPath></defs>
</svg>
