<svg width="40" height="42" viewBox="0 0 40 42" fill="none" xmlns="http://www.w3.org/2000/svg">
<g clip-path="url(#paint0_angular_2_24_clip_path)" data-figma-skip-parse="true"><g transform="matrix(0.021 0 0 0.02 20 21)"><foreignObject x="-1100" y="-1100" width="2200" height="2200"><div xmlns="http://www.w3.org/1999/xhtml" style="background:conic-gradient(from 90deg,rgba(223, 140, 16, 1) 0deg,rgba(242, 211, 119, 1) 360deg);height:100%;width:100%;opacity:1"></div></foreignObject></g></g><ellipse cx="20" cy="21" rx="20" ry="21" data-figma-gradient-fill="{&#34;type&#34;:&#34;GRADIENT_ANGULAR&#34;,&#34;stops&#34;:[{&#34;color&#34;:{&#34;r&#34;:0.87740385532379150,&#34;g&#34;:0.55259567499160767,&#34;b&#34;:0.065383456647396088,&#34;a&#34;:1.0},&#34;position&#34;:0.0},{&#34;color&#34;:{&#34;r&#34;:0.94951921701431274,&#34;g&#34;:0.82968789339065552,&#34;b&#34;:0.47019460797309875,&#34;a&#34;:1.0},&#34;position&#34;:1.0}],&#34;stopsVar&#34;:[{&#34;color&#34;:{&#34;r&#34;:0.87740385532379150,&#34;g&#34;:0.55259567499160767,&#34;b&#34;:0.065383456647396088,&#34;a&#34;:1.0},&#34;position&#34;:0.0},{&#34;color&#34;:{&#34;r&#34;:0.94951921701431274,&#34;g&#34;:0.82968789339065552,&#34;b&#34;:0.47019460797309875,&#34;a&#34;:1.0},&#34;position&#34;:1.0}],&#34;transform&#34;:{&#34;m00&#34;:42.0,&#34;m01&#34;:9.9196392677118432e-15,&#34;m02&#34;:-1.0000009536743164,&#34;m10&#34;:-1.0164569008805791e-14,&#34;m11&#34;:40.0,&#34;m12&#34;:0.99999880790710449},&#34;opacity&#34;:1.0,&#34;blendMode&#34;:&#34;NORMAL&#34;,&#34;visible&#34;:true}"/>
<path d="M19.3756 14.069C18.7276 14.069 16.1356 14.177 15.0286 14.204C13.9756 14.231 13.1116 13.124 13.1116 12.044C13.0576 10.964 13.9216 9.938 15.0556 9.722C15.8926 9.587 18.9166 9.614 19.6186 9.614C24.0466 9.587 27.2866 11.423 27.2866 15.176C27.2866 17.471 26.0176 19.064 23.8576 19.496C26.3416 19.82 28.0426 21.629 28.0426 24.194C28.0426 28.352 24.4516 30.593 19.4296 30.593C17.3776 30.593 15.0556 30.269 13.5976 29.459C12.6256 28.919 12.1666 28.109 12.5176 26.786C12.9226 25.274 14.5696 25.004 15.3256 25.355C16.1356 25.679 17.8096 26.111 19.3486 26.111C22.4536 26.111 23.4796 25.058 23.4796 23.87C23.4796 22.79 23.0476 21.899 19.7536 21.899H15.4336C14.4886 21.899 13.5706 21.089 13.5706 19.658C13.5706 18.416 14.4616 17.39 15.4336 17.39H19.5376C21.8326 17.39 22.7506 16.931 22.7506 15.635C22.7506 14.717 22.0216 14.069 19.3756 14.069Z" fill="white"/>
<defs>
<clipPath id="paint0_angular_2_24_clip_path"><ellipse cx="20" cy="21" rx="20" ry="21"/></clipPath></defs>
</svg>
