<?xml version="1.0" encoding="UTF-8"?>
<svg id="_레이어_2" data-name="레이어 2" xmlns="http://www.w3.org/2000/svg" viewBox="0 0 345.24 64.28">
  <defs>
    <style>
      .cls-1 {
        fill: #ad5922;
      }

      .cls-2 {
        fill: #ef8017;
      }

      .cls-3 {
        fill: #040000;
      }
    </style>
  </defs>
  <g id="_레이어_1-2" data-name="레이어 1">
    <g>
      <g>
        <path class="cls-3" d="M91.05,22.09c-9.45,0-16.71,6.69-16.71,16.89s6.97,16.66,16.71,16.66,16.66-6.86,16.66-16.66-7.2-16.89-16.66-16.89ZM91.05,45.83c-4.55,0-6.8-3.46-6.8-6.86,0-4.04,2.54-7.09,6.8-7.09s6.74,3,6.74,7.09c0,3.4-2.31,6.86-6.74,6.86Z"/>
        <path class="cls-3" d="M135.98,20.13c2.77.23,5.36-1.15,5.53-3.86v-2.48c-.11-2.13-2.82-3.17-5.24-3.17-1.96,0-4.84,1.33-4.73,3.8l.06,2.25c.06,1.84,1.84,3.23,4.38,3.46Z"/>
        <path class="cls-3" d="M161.75,52.06h1.21c2.19,0,3.23-2.07,3.23-4.32,0-2.42-1.1-4.21-3.23-4.21h-.63c-2.13,0-4.09-1.04-4.09-4.5,0-3.17.23-9.34.23-12.91,0-1.79-1.38-3.8-4.9-3.8-3.69,0-4.9,2.02-5.01,3.75-.17,3.06-.17,8.82-.17,12.68,0,7.66,4.38,13.31,13.37,13.31Z"/>
        <path class="cls-3" d="M177.78,26.41c-.06-2.13-1.44-4.09-4.96-4.09s-5.01,2.25-4.96,4.04c.23,8.82.4,16.25.11,22.94-.23,4.44-1.9,6.51-5.19,6.51-2.25,0-3.86-.17-6.11-1.27-2.07-.98-4.78,0-5.53,2.42-.81,2.77.98,4.44,2.36,5.19,2.13,1.44,5.53,2.07,9.11,2.13,7.78.17,15.33-4.27,15.16-15.97-.11-6.97.17-14.7,0-21.9Z"/>
        <path class="cls-3" d="M205.23,44.85c-1.79.63-4.21,1.27-6.69,1.04-4.32-.4-5.88-3.86-5.88-7.09,0-3.75,2.71-6.97,7.03-6.92,1.1,0,4.15.23,5.42.4,2.77.4,4.38-1.9,4.73-4.55.35-2.65-.81-4.61-3.4-5.13-1.67-.4-5.13-.46-6.63-.46-9.57-.06-16.71,6.11-17.06,16.25-.4,9.8,5.53,16.71,15.62,17.23,3.46.17,7.21-.46,9.68-1.96,1.38-.81,3.34-2.48,2.71-5.42-.46-2.77-3-4.21-5.53-3.4Z"/>
        <path class="cls-3" d="M228.36,22.09c-1.67,0-5.53.06-8.3.63-1.9.46-3.86,1.67-3.75,4.44.11,2.19,1.38,3.86,4.5,3.69,1.67-.17,5.3-.63,7.15-.58,4.03.12,4.9,2.36,4.9,6.74,0,1.61-.06,4.26-.23,8.18-.06.58-.11,1.96-1.67,1.96h-3.4c-2.54,0-4.67-.81-4.67-2.6,0-1.33.81-2.53,2.54-2.53h2.07c2.36,0,3.4-1.96,3.4-4.04,0-2.25-1.21-3.92-3.34-3.92h-3.86c-7.32,0-10.6,3.75-10.6,10.55,0,7.38,6.63,10.43,15.79,10.43h8.47c2.48,0,4.38-1.61,4.84-4.15.46-2.82.46-11.12.46-14.87-.11-10.03-6.57-13.89-14.29-13.95Z"/>
        <path class="cls-3" d="M263.82,34.88c-3.63-.92-6.28-1.44-6.28-2.25,0-.92.69-1.38,4.09-1.5,1.15-.06,5.94.23,7.49.46,2.48.35,4.61-1.44,4.78-3.86.23-2.88-1.84-4.96-3.46-5.24-1.9-.34-6.92-.46-8.99-.4-6.86.11-13.49,2.42-13.83,9.57-.34,7.26,8.01,9.51,13.14,10.66,3.86.92,5.59,1.33,5.65,2.48.06,1.38-1.9,1.79-5.3,1.56-2.6-.17-5.65-.75-7.49-1.38-1.96-.58-5.19-.35-6.17,2.83-.8,2.59.92,4.55,2.08,5.24,2.65,1.5,7.43,2.36,10.6,2.48,7.44.23,16.43-1.84,16.25-10.78-.11-6.05-5.53-8.13-12.57-9.86Z"/>
        <path class="cls-3" d="M296.17,34.88c-3.63-.92-6.28-1.44-6.28-2.25,0-.92.69-1.38,4.09-1.5,1.15-.06,5.94.23,7.49.46,2.48.35,4.61-1.44,4.78-3.86.23-2.88-1.84-4.96-3.46-5.24-1.9-.34-6.92-.46-8.99-.4-6.86.11-13.49,2.42-13.83,9.57-.34,7.26,8.01,9.51,13.14,10.66,3.86.92,5.59,1.33,5.65,2.48.06,1.38-1.9,1.79-5.3,1.56-2.6-.17-5.65-.75-7.49-1.38-1.96-.58-5.19-.35-6.17,2.83-.8,2.59.92,4.55,2.08,5.24,2.65,1.5,7.43,2.36,10.6,2.48,7.44.23,16.43-1.84,16.25-10.78-.11-6.05-5.53-8.13-12.57-9.86Z"/>
        <path class="cls-3" d="M328.58,22.09c-9.45,0-16.71,6.69-16.71,16.89s6.97,16.66,16.71,16.66,16.66-6.86,16.66-16.66-7.2-16.89-16.66-16.89ZM328.58,45.83c-4.55,0-6.8-3.46-6.8-6.86,0-4.04,2.54-7.09,6.8-7.09s6.74,3,6.74,7.09c0,3.4-2.31,6.86-6.74,6.86Z"/>
        <path class="cls-3" d="M122.22,11.25c-1.7-1.63-4.03-3.86-4.03-3.86-5.67,3.88-5.18,8-5.18,8,0,3.02,2.45,5.46,5.46,5.46s5.46-2.45,5.46-5.46c0-.47-.07-.92-.18-1.36-.29-.96-.9-2.16-1.54-2.78Z"/>
      </g>
      <path class="cls-3" d="M45.81,6.67s8.46.78,12.73-6.67c0,0-.68,4.79,5.1,9.09,5.78,4.3-16.82,3.97-16.82,3.97l-1-6.39Z"/>
      <path class="cls-2" d="M20.85,11.05h10.27v20.85H0C0,20.39,9.34,11.05,20.85,11.05Z"/>
      <path class="cls-1" d="M29.48,32.66h0v20.85H11.91v-3.28c0-9.7,7.87-17.57,17.57-17.57Z" transform="translate(-22.39 63.79) rotate(-90)"/>
      <path class="cls-3" d="M52.88,6.67h-10.89c-1.66,0-4.51,1.66-5.05,4.91-.86,5.51-.66,32.6-.4,38.57.13,1.99,2.06,4.51,5.78,4.51,3.92,0,5.78-2.39,5.64-4.58-.4-8.56-.6-19.98-.07-30.6,0-.4.07-1.73,1.59-1.73h4.45c5.25,0,7.11,2.79,7.11,6.57,0,3.98-2.19,6.77-5.78,6.77h-.8c-2.39,0-4.58,2.66-4.58,5.51,0,3.05,2.26,5.58,4.51,5.58h2.46c10.16,0,15.4-7.57,15.4-17.79,0-10.82-7.37-17.66-19.39-17.73ZM43.36,15.52c-1.36,0-2.46-1.1-2.46-2.46s1.1-2.46,2.46-2.46,2.46,1.1,2.46,2.46-1.1,2.46-2.46,2.46Z"/>
      <g>
        <path class="cls-3" d="M141.58,31.72c-.03-1.59-.08-3.16-.12-4.74,0-2.77-2.83-4.09-5.48-3.86-2.42.23-4.44,1.79-4.44,4.09.02,1.54.04,3.03.06,4.51h9.98Z"/>
        <path class="cls-3" d="M131.63,34.54c.04,5.25.02,10.34-.14,16.25,0,2.36,2.08,4.15,4.61,4.27,2.48.12,5.25-1.67,5.36-3.86.23-6.13.25-11.51.18-16.66h-10.01Z"/>
      </g>
      <g>
        <path class="cls-3" d="M123.53,31.72c-.03-1.59-.08-3.16-.12-4.74,0-2.77-2.83-4.09-5.48-3.86-2.42.23-4.44,1.79-4.44,4.09.02,1.54.04,3.03.06,4.51h9.98Z"/>
        <path class="cls-3" d="M113.58,34.54c.04,5.25.02,10.34-.14,16.25,0,2.36,2.08,4.15,4.61,4.27,2.48.12,5.25-1.67,5.36-3.86.23-6.13.25-11.51.18-16.66h-10.01Z"/>
      </g>
      <path class="cls-3" d="M216.31,27.16s-.77-2.18,0-7.49c0,0,.43,1.65,8.96,2.47s4.02,4.07,3.78,4.36-12.74.65-12.74.65Z"/>
      <circle class="cls-3" cx="136.58" cy="15.39" r="5.46"/>
      <path class="cls-3" d="M140.33,11.25c-1.7-1.63-4.03-3.86-4.03-3.86-5.67,3.88-5.18,8-5.18,8,0,3.02,2.45,5.46,5.46,5.46s5.46-2.45,5.46-5.46c0-.47-.07-.92-.18-1.36-.29-.96-.9-2.16-1.54-2.78Z"/>
    </g>
  </g>
</svg>